# Blender v3.2.1 OBJ File: ''
# www.blender.org
mtllib cylinder2.mtl
o Cyl_2
v 8.367457 3.175000 1.545726
v 16.798471 3.175000 1.765769
v 8.503322 3.175000 0.310944
v 16.891001 3.175000 0.000178
v 8.457953 3.175000 -0.930462
v 16.798471 3.175000 -1.765413
v 8.232318 3.175000 -2.152031
v 2.451434 3.175001 -8.148045
v 3.511836 3.175003 -16.521713
v 1.238919 3.175001 -8.418144
v 1.765590 3.175003 -16.798292
v -0.000001 3.175001 -8.508821
v -0.000001 3.175003 -16.890823
v -1.238921 3.175001 -8.418144
v 3.039678 3.174999 7.947720
v 6.870189 3.174997 15.430875
v 4.164456 3.174999 7.420447
v 8.445500 3.174998 14.628213
v 5.200477 3.174999 6.735022
v -6.540420 3.175001 -5.442800
v -13.665107 3.175002 -9.928102
v -7.263225 3.175001 -4.432503
v -14.628036 3.175001 -8.445322
v -7.831227 3.175000 -3.327732
v -3.611703 3.175001 -7.704281
v -8.445501 3.175002 -14.627856
v -4.694993 3.175001 -7.096309
v -9.928281 3.175002 -13.664927
v -5.678217 3.175001 -6.337088
v -11.302285 3.175002 -12.552280
v -12.552460 3.175002 -11.302106
v 7.263223 3.175001 -4.432503
v 13.665105 3.175002 -9.928102
v 6.540418 3.175001 -5.442800
v 12.552459 3.175002 -11.302106
v 5.678216 3.175001 -6.337088
v 11.302283 3.175002 -12.552280
v 4.694991 3.175001 -7.096309
v 7.567410 3.174999 3.890853
v 15.430696 3.174999 6.870368
v 8.053256 3.174999 2.747567
v 16.064295 3.174999 5.219784
v 16.521891 3.174999 3.512015
v 9.928279 3.174998 13.665284
v 11.302283 3.174998 12.552638
v 6.125657 3.174999 5.906056
v 12.552459 3.174998 11.302463
v 6.920281 3.174999 4.951216
v 13.665105 3.174998 9.928458
v 14.628034 3.174999 8.445680
v -4.164457 3.174999 7.420447
v -6.870190 3.174997 15.430875
v -3.039679 3.174999 7.947720
v -5.219607 3.174997 16.064472
v -1.850114 3.174999 8.305608
v -3.511837 3.174997 16.522068
v -0.621117 3.174999 8.486480
v -1.765592 3.174997 16.798649
v -0.000001 3.174999 8.509179
v -0.000001 3.174997 16.891178
v 0.621116 3.174999 8.486480
v 1.765590 3.174997 16.798649
v 1.850112 3.174999 8.305608
v 3.511836 3.174997 16.522068
v 5.219605 3.174997 16.064472
v 9.928279 3.175002 -13.664927
v 8.445500 3.175002 -14.627856
v 3.611701 3.175001 -7.704281
v 6.870189 3.175003 -15.430518
v 5.219605 3.175003 -16.064117
v -6.125660 3.174999 5.906056
v -11.302285 3.174998 12.552638
v -5.200479 3.174999 6.735022
v -9.928281 3.174998 13.665284
v -8.445501 3.174998 14.628213
v -1.765592 3.175003 -16.798292
v -3.511837 3.175003 -16.521713
v -2.451436 3.175001 -8.148045
v -5.219607 3.175003 -16.064117
v -6.870190 3.175003 -15.430518
v 16.521891 3.175000 -3.511658
v 16.064295 3.175001 -5.219429
v 7.831225 3.175000 -3.327732
v 15.430696 3.175001 -6.870011
v 14.628034 3.175001 -8.445322
v -8.053257 3.174999 2.747567
v -15.430697 3.174999 6.870368
v -7.567413 3.174999 3.890853
v -14.628036 3.174999 8.445680
v -6.920283 3.174999 4.951216
v -13.665107 3.174998 9.928458
v -12.552460 3.174998 11.302463
v -8.503325 3.175000 0.310944
v -16.798470 3.175000 1.765769
v -8.367459 3.175000 1.545726
v -16.521891 3.174999 3.512015
v -16.064295 3.174999 5.219784
v -15.430697 3.175001 -6.870011
v -16.064295 3.175001 -5.219429
v -8.232320 3.175000 -2.152031
v -16.521891 3.175000 -3.511658
v -8.457955 3.175000 -0.930462
v -16.798470 3.175000 -1.765413
v -16.891001 3.175000 0.000178
v -2.451436 -3.174999 -8.148046
v -3.511837 -3.174997 -16.521713
v -1.238921 -3.174999 -8.418146
v -1.765592 -3.174997 -16.798292
v -0.000001 -3.174999 -8.508823
v -0.000001 -3.174997 -16.890823
v 1.238919 -3.174999 -8.418146
v 7.831225 -3.174999 -3.327733
v 16.064295 -3.174999 -5.219429
v 8.232318 -3.175000 -2.152032
v 16.521891 -3.174999 -3.511659
v 8.457953 -3.175000 -0.930463
v 16.798471 -3.175000 -1.765414
v 8.503322 -3.175000 0.310943
v -4.694993 -3.174999 -7.096310
v -8.445501 -3.174998 -14.627858
v -3.611703 -3.174999 -7.704282
v -6.870190 -3.174997 -15.430520
v -5.219607 -3.174997 -16.064117
v 6.540418 -3.174999 -5.442801
v 13.665105 -3.174998 -9.928103
v 7.263223 -3.174999 -4.432504
v 14.628034 -3.174999 -8.445324
v 15.430696 -3.174999 -6.870012
v 3.611701 -3.174999 -7.704282
v 8.445500 -3.174998 -14.627858
v 4.694991 -3.174999 -7.096310
v 9.928279 -3.174998 -13.664929
v 5.678216 -3.174999 -6.337089
v 11.302283 -3.174998 -12.552282
v 12.552459 -3.174998 -11.302108
v 1.765590 -3.174997 -16.798292
v 3.511836 -3.174997 -16.521713
v 2.451434 -3.174999 -8.148046
v 5.219605 -3.174997 -16.064117
v 6.870189 -3.174997 -15.430520
v -7.263225 -3.174999 -4.432504
v -13.665107 -3.174998 -9.928103
v -6.540420 -3.174999 -5.442801
v -12.552460 -3.174998 -11.302108
v -5.678217 -3.174999 -6.337089
v -11.302285 -3.174998 -12.552282
v -9.928281 -3.174998 -13.664929
v -8.232320 -3.175000 -2.152032
v -16.064295 -3.174999 -5.219429
v -7.831227 -3.174999 -3.327733
v -15.430697 -3.174999 -6.870012
v -14.628036 -3.174999 -8.445324
v -8.367459 -3.175000 1.545725
v -16.798470 -3.175000 1.765768
v -8.503325 -3.175000 0.310943
v -16.891001 -3.175000 0.000177
v -8.457955 -3.175000 -0.930463
v -16.798470 -3.175000 -1.765414
v -16.521891 -3.174999 -3.511659
v -7.567413 -3.175001 3.890852
v -15.430697 -3.175001 6.870367
v -8.053257 -3.175000 2.747566
v -16.064295 -3.175001 5.219783
v -16.521891 -3.175000 3.512014
v 16.891001 -3.175000 0.000177
v 16.798471 -3.175000 1.765768
v 8.367457 -3.175000 1.545725
v 16.521891 -3.175000 3.512014
v 8.053256 -3.175000 2.747566
v -5.200479 -3.175001 6.735021
v -11.302285 -3.175002 12.552636
v -6.125660 -3.175001 5.906055
v -12.552460 -3.175002 11.302461
v -6.920283 -3.175001 4.951215
v -13.665107 -3.175002 9.928456
v -14.628036 -3.175001 8.445678
v -3.039679 -3.175001 7.947719
v -6.870190 -3.175003 15.430873
v -4.164457 -3.175001 7.420446
v -8.445501 -3.175002 14.628211
v -9.928281 -3.175002 13.665282
v 6.125657 -3.175001 5.906055
v 11.302283 -3.175002 12.552636
v 5.200477 -3.175001 6.735021
v 9.928279 -3.175002 13.665282
v 4.164456 -3.175001 7.420446
v 16.064295 -3.175001 5.219783
v 15.430696 -3.175001 6.870367
v 7.567410 -3.175001 3.890852
v 14.628034 -3.175001 8.445678
v 6.920281 -3.175001 4.951215
v 13.665105 -3.175002 9.928456
v 12.552459 -3.175002 11.302461
v 8.445500 -3.175002 14.628211
v 6.870189 -3.175003 15.430873
v 3.039678 -3.175001 7.947719
v 5.219605 -3.175003 16.064472
v 1.850112 -3.175001 8.305606
v 3.511836 -3.175003 16.522068
v 0.621116 -3.175001 8.486478
v 1.765590 -3.175003 16.798649
v -0.000001 -3.175001 8.509177
v -0.000001 -3.175003 16.891178
v -0.621117 -3.175001 8.486478
v -1.765592 -3.175003 16.798649
v -1.850114 -3.175001 8.305606
v -3.511837 -3.175003 16.522068
v -5.219607 -3.175003 16.064472
vn -0.6784 0.7239 -0.1253
vn 0.7146 0.6955 0.0751
vn -0.6894 0.7239 -0.0252
vn 0.7185 0.6955 0.0000
vn -0.6858 0.7239 0.0755
vn 0.7146 0.6955 -0.0751
vn -0.6675 0.7239 0.1745
vn -0.1988 0.7239 0.6606
vn 0.1494 0.6955 -0.7028
vn -0.1004 0.7239 0.6825
vn 0.0751 0.6955 -0.7146
vn 0.0000 0.7239 0.6899
vn -0.0000 0.6955 -0.7185
vn 0.1004 0.7239 0.6825
vn -0.2465 0.7239 -0.6444
vn 0.2922 0.6955 0.6564
vn -0.3376 0.7239 -0.6016
vn 0.3593 0.6955 0.6222
vn -0.4216 0.7239 -0.5460
vn 0.5303 0.7239 0.4413
vn -0.5813 0.6955 -0.4223
vn 0.5889 0.7239 0.3594
vn -0.6222 0.6955 -0.3593
vn 0.6349 0.7239 0.2698
vn 0.2928 0.7239 0.6247
vn -0.3593 0.6955 -0.6222
vn 0.3807 0.7239 0.5754
vn -0.4223 0.6955 -0.5813
vn 0.4604 0.7239 0.5138
vn -0.4808 0.6955 -0.5340
vn -0.5340 0.6955 -0.4808
vn -0.5889 0.7239 0.3594
vn 0.5813 0.6955 -0.4223
vn -0.5303 0.7239 0.4413
vn 0.5340 0.6955 -0.4808
vn -0.4604 0.7239 0.5138
vn 0.4808 0.6955 -0.5340
vn -0.3807 0.7239 0.5754
vn -0.6136 0.7239 -0.3154
vn 0.6564 0.6955 0.2922
vn -0.6529 0.7239 -0.2228
vn 0.6833 0.6955 0.2220
vn 0.7028 0.6955 0.1494
vn 0.4223 0.6955 0.5813
vn 0.4808 0.6955 0.5340
vn -0.4967 0.7239 -0.4788
vn 0.5340 0.6955 0.4808
vn -0.5611 0.7239 -0.4014
vn 0.5813 0.6955 0.4223
vn 0.6222 0.6955 0.3593
vn 0.3376 0.7239 -0.6016
vn -0.2922 0.6955 0.6564
vn 0.2465 0.7239 -0.6444
vn -0.2220 0.6955 0.6833
vn 0.1500 0.7239 -0.6734
vn -0.1494 0.6955 0.7028
vn 0.0633 0.7196 -0.6914
vn -0.0751 0.6955 0.7146
vn 0.0000 0.7154 -0.6987
vn 0.0000 0.6955 0.7185
vn -0.0633 0.7196 -0.6914
vn 0.0751 0.6955 0.7146
vn -0.1500 0.7239 -0.6734
vn 0.1494 0.6955 0.7028
vn 0.2220 0.6955 0.6833
vn 0.4223 0.6955 -0.5813
vn 0.3593 0.6955 -0.6222
vn -0.2928 0.7239 0.6247
vn 0.2922 0.6955 -0.6564
vn 0.2220 0.6955 -0.6833
vn 0.4967 0.7239 -0.4788
vn -0.4808 0.6955 0.5340
vn 0.4216 0.7239 -0.5460
vn -0.4223 0.6955 0.5813
vn -0.3593 0.6955 0.6222
vn -0.0751 0.6955 -0.7146
vn -0.1494 0.6955 -0.7028
vn 0.1988 0.7239 0.6606
vn -0.2220 0.6955 -0.6833
vn -0.2922 0.6955 -0.6564
vn 0.7028 0.6955 -0.1494
vn 0.6833 0.6955 -0.2220
vn -0.6349 0.7239 0.2698
vn 0.6564 0.6955 -0.2922
vn 0.6222 0.6955 -0.3593
vn 0.6529 0.7239 -0.2228
vn -0.6564 0.6955 0.2922
vn 0.6136 0.7239 -0.3154
vn -0.6222 0.6955 0.3593
vn 0.5611 0.7239 -0.4014
vn -0.5813 0.6955 0.4223
vn -0.5340 0.6955 0.4808
vn 0.6894 0.7239 -0.0252
vn -0.7146 0.6955 0.0751
vn 0.6784 0.7239 -0.1253
vn -0.7028 0.6955 0.1494
vn -0.6833 0.6955 0.2220
vn -0.6564 0.6955 -0.2922
vn -0.6833 0.6955 -0.2220
vn 0.6675 0.7239 0.1745
vn -0.7028 0.6955 -0.1494
vn 0.6858 0.7239 0.0755
vn -0.7146 0.6955 -0.0751
vn -0.7185 0.6955 0.0000
vn 0.1988 -0.7239 0.6606
vn -0.1494 -0.6955 -0.7028
vn 0.1004 -0.7239 0.6825
vn -0.0751 -0.6955 -0.7146
vn -0.0000 -0.7239 0.6899
vn 0.0000 -0.6955 -0.7185
vn -0.1004 -0.7239 0.6825
vn -0.6349 -0.7239 0.2698
vn 0.6833 -0.6955 -0.2220
vn -0.6675 -0.7239 0.1745
vn 0.7028 -0.6955 -0.1494
vn -0.6858 -0.7239 0.0755
vn 0.7146 -0.6955 -0.0751
vn -0.6894 -0.7239 -0.0252
vn 0.3807 -0.7239 0.5754
vn -0.3593 -0.6955 -0.6222
vn 0.2928 -0.7239 0.6247
vn -0.2922 -0.6955 -0.6564
vn -0.2220 -0.6955 -0.6833
vn -0.5303 -0.7239 0.4413
vn 0.5813 -0.6955 -0.4223
vn -0.5889 -0.7239 0.3594
vn 0.6222 -0.6955 -0.3593
vn 0.6564 -0.6955 -0.2922
vn -0.2928 -0.7239 0.6247
vn 0.3593 -0.6955 -0.6222
vn -0.3807 -0.7239 0.5754
vn 0.4223 -0.6955 -0.5813
vn -0.4604 -0.7239 0.5138
vn 0.4808 -0.6955 -0.5340
vn 0.5340 -0.6955 -0.4808
vn 0.0751 -0.6955 -0.7146
vn 0.1494 -0.6955 -0.7028
vn -0.1988 -0.7239 0.6606
vn 0.2220 -0.6955 -0.6833
vn 0.2922 -0.6955 -0.6564
vn 0.5889 -0.7239 0.3594
vn -0.5813 -0.6955 -0.4223
vn 0.5303 -0.7239 0.4413
vn -0.5340 -0.6955 -0.4808
vn 0.4604 -0.7239 0.5138
vn -0.4808 -0.6955 -0.5340
vn -0.4223 -0.6955 -0.5813
vn 0.6675 -0.7239 0.1745
vn -0.6833 -0.6955 -0.2220
vn 0.6349 -0.7239 0.2698
vn -0.6564 -0.6955 -0.2922
vn -0.6222 -0.6955 -0.3593
vn 0.6784 -0.7239 -0.1253
vn -0.7146 -0.6955 0.0751
vn 0.6894 -0.7239 -0.0252
vn -0.7185 -0.6955 -0.0000
vn 0.6858 -0.7239 0.0755
vn -0.7146 -0.6955 -0.0751
vn -0.7028 -0.6955 -0.1494
vn 0.6136 -0.7239 -0.3154
vn -0.6564 -0.6955 0.2922
vn 0.6529 -0.7239 -0.2228
vn -0.6833 -0.6955 0.2220
vn -0.7028 -0.6955 0.1494
vn 0.7185 -0.6955 -0.0000
vn 0.7146 -0.6955 0.0751
vn -0.6784 -0.7239 -0.1253
vn 0.7028 -0.6955 0.1494
vn -0.6529 -0.7239 -0.2228
vn 0.4216 -0.7239 -0.5460
vn -0.4808 -0.6955 0.5340
vn 0.4967 -0.7239 -0.4788
vn -0.5340 -0.6955 0.4808
vn 0.5611 -0.7239 -0.4014
vn -0.5813 -0.6955 0.4223
vn -0.6222 -0.6955 0.3593
vn 0.2465 -0.7239 -0.6444
vn -0.2922 -0.6955 0.6564
vn 0.3376 -0.7239 -0.6016
vn -0.3593 -0.6955 0.6222
vn -0.4223 -0.6955 0.5813
vn -0.4967 -0.7239 -0.4788
vn 0.4808 -0.6955 0.5340
vn -0.4216 -0.7239 -0.5460
vn 0.4223 -0.6955 0.5813
vn -0.3376 -0.7239 -0.6016
vn 0.6833 -0.6955 0.2220
vn 0.6564 -0.6955 0.2922
vn -0.6136 -0.7239 -0.3154
vn 0.6222 -0.6955 0.3593
vn -0.5611 -0.7239 -0.4014
vn 0.5813 -0.6955 0.4223
vn 0.5340 -0.6955 0.4808
vn 0.3593 -0.6955 0.6222
vn 0.2922 -0.6955 0.6564
vn -0.2465 -0.7239 -0.6444
vn 0.2220 -0.6955 0.6833
vn -0.1500 -0.7239 -0.6734
vn 0.1494 -0.6955 0.7028
vn -0.0633 -0.7196 -0.6914
vn 0.0751 -0.6955 0.7146
vn -0.0000 -0.7154 -0.6987
vn -0.0000 -0.6955 0.7185
vn 0.0633 -0.7196 -0.6914
vn -0.0751 -0.6955 0.7146
vn 0.1500 -0.7239 -0.6734
vn -0.1494 -0.6955 0.7028
vn -0.2220 -0.6955 0.6833
usemtl Default_OBJ.001
s 1
f 1//1 2//2 3//3
f 3//3 2//2 4//4
f 3//3 4//4 5//5
f 5//5 4//4 6//6
f 5//5 6//6 7//7
f 8//8 9//9 10//10
f 10//10 9//9 11//11
f 10//10 11//11 12//12
f 12//12 11//11 13//13
f 12//12 13//13 14//14
f 15//15 16//16 17//17
f 17//17 16//16 18//18
f 17//17 18//18 19//19
f 20//20 21//21 22//22
f 22//22 21//21 23//23
f 22//22 23//23 24//24
f 25//25 26//26 27//27
f 27//27 26//26 28//28
f 27//27 28//28 29//29
f 29//29 28//28 30//30
f 29//29 30//30 20//20
f 20//20 30//30 31//31
f 20//20 31//31 21//21
f 32//32 33//33 34//34
f 34//34 33//33 35//35
f 34//34 35//35 36//36
f 36//36 35//35 37//37
f 36//36 37//37 38//38
f 39//39 40//40 41//41
f 41//41 40//40 42//42
f 41//41 42//42 1//1
f 1//1 42//42 43//43
f 1//1 43//43 2//2
f 18//18 44//44 19//19
f 19//19 44//44 45//45
f 19//19 45//45 46//46
f 46//46 45//45 47//47
f 46//46 47//47 48//48
f 48//48 47//47 49//49
f 48//48 49//49 39//39
f 39//39 49//49 50//50
f 39//39 50//50 40//40
f 51//51 52//52 53//53
f 53//53 52//52 54//54
f 53//53 54//54 55//55
f 55//55 54//54 56//56
f 55//55 56//56 57//57
f 57//57 56//56 58//58
f 57//57 58//58 59//59
f 59//59 58//58 60//60
f 59//59 60//60 61//61
f 61//61 60//60 62//62
f 61//61 62//62 63//63
f 63//63 62//62 64//64
f 63//63 64//64 15//15
f 15//15 64//64 65//65
f 15//15 65//65 16//16
f 37//37 66//66 38//38
f 38//38 66//66 67//67
f 38//38 67//67 68//68
f 68//68 67//67 69//69
f 68//68 69//69 8//8
f 8//8 69//69 70//70
f 8//8 70//70 9//9
f 71//71 72//72 73//73
f 73//73 72//72 74//74
f 73//73 74//74 51//51
f 51//51 74//74 75//75
f 51//51 75//75 52//52
f 13//13 76//76 14//14
f 14//14 76//76 77//77
f 14//14 77//77 78//78
f 78//78 77//77 79//79
f 78//78 79//79 25//25
f 25//25 79//79 80//80
f 25//25 80//80 26//26
f 6//6 81//81 7//7
f 7//7 81//81 82//82
f 7//7 82//82 83//83
f 83//83 82//82 84//84
f 83//83 84//84 32//32
f 32//32 84//84 85//85
f 32//32 85//85 33//33
f 86//86 87//87 88//88
f 88//88 87//87 89//89
f 88//88 89//89 90//90
f 90//90 89//89 91//91
f 90//90 91//91 71//71
f 71//71 91//91 92//92
f 71//71 92//92 72//72
f 93//93 94//94 95//95
f 95//95 94//94 96//96
f 95//95 96//96 86//86
f 86//86 96//96 97//97
f 86//86 97//97 87//87
f 23//23 98//98 24//24
f 24//24 98//98 99//99
f 24//24 99//99 100//100
f 100//100 99//99 101//101
f 100//100 101//101 102//102
f 102//102 101//101 103//103
f 102//102 103//103 93//93
f 93//93 103//103 104//104
f 93//93 104//104 94//94
f 105//105 106//106 107//107
f 107//107 106//106 108//108
f 107//107 108//108 109//109
f 109//109 108//108 110//110
f 109//109 110//110 111//111
f 112//112 113//113 114//114
f 114//114 113//113 115//115
f 114//114 115//115 116//116
f 116//116 115//115 117//117
f 116//116 117//117 118//118
f 119//119 120//120 121//121
f 121//121 120//120 122//122
f 121//121 122//122 105//105
f 105//105 122//122 123//123
f 105//105 123//123 106//106
f 124//124 125//125 126//126
f 126//126 125//125 127//127
f 126//126 127//127 112//112
f 112//112 127//127 128//128
f 112//112 128//128 113//113
f 129//129 130//130 131//131
f 131//131 130//130 132//132
f 131//131 132//132 133//133
f 133//133 132//132 134//134
f 133//133 134//134 124//124
f 124//124 134//134 135//135
f 124//124 135//135 125//125
f 110//110 136//136 111//111
f 111//111 136//136 137//137
f 111//111 137//137 138//138
f 138//138 137//137 139//139
f 138//138 139//139 129//129
f 129//129 139//139 140//140
f 129//129 140//140 130//130
f 141//141 142//142 143//143
f 143//143 142//142 144//144
f 143//143 144//144 145//145
f 145//145 144//144 146//146
f 145//145 146//146 119//119
f 119//119 146//146 147//147
f 119//119 147//147 120//120
f 148//148 149//149 150//150
f 150//150 149//149 151//151
f 150//150 151//151 141//141
f 141//141 151//151 152//152
f 141//141 152//152 142//142
f 153//153 154//154 155//155
f 155//155 154//154 156//156
f 155//155 156//156 157//157
f 157//157 156//156 158//158
f 157//157 158//158 148//148
f 148//148 158//158 159//159
f 148//148 159//159 149//149
f 160//160 161//161 162//162
f 162//162 161//161 163//163
f 162//162 163//163 153//153
f 153//153 163//163 164//164
f 153//153 164//164 154//154
f 117//117 165//165 118//118
f 118//118 165//165 166//166
f 118//118 166//166 167//167
f 167//167 166//166 168//168
f 167//167 168//168 169//169
f 170//170 171//171 172//172
f 172//172 171//171 173//173
f 172//172 173//173 174//174
f 174//174 173//173 175//175
f 174//174 175//175 160//160
f 160//160 175//175 176//176
f 160//160 176//176 161//161
f 177//177 178//178 179//179
f 179//179 178//178 180//180
f 179//179 180//180 170//170
f 170//170 180//180 181//181
f 170//170 181//181 171//171
f 182//182 183//183 184//184
f 184//184 183//183 185//185
f 184//184 185//185 186//186
f 168//168 187//187 169//169
f 169//169 187//187 188//188
f 169//169 188//188 189//189
f 189//189 188//188 190//190
f 189//189 190//190 191//191
f 191//191 190//190 192//192
f 191//191 192//192 182//182
f 182//182 192//192 193//193
f 182//182 193//193 183//183
f 185//185 194//194 186//186
f 186//186 194//194 195//195
f 186//186 195//195 196//196
f 196//196 195//195 197//197
f 196//196 197//197 198//198
f 198//198 197//197 199//199
f 198//198 199//199 200//200
f 200//200 199//199 201//201
f 200//200 201//201 202//202
f 202//202 201//201 203//203
f 202//202 203//203 204//204
f 204//204 203//203 205//205
f 204//204 205//205 206//206
f 206//206 205//205 207//207
f 206//206 207//207 177//177
f 177//177 207//207 208//208
f 177//177 208//208 178//178
f 110//110 11//11 136//136
f 136//136 11//11 9//9
f 136//136 9//9 137//137
f 137//137 9//9 70//70
f 137//137 70//70 139//139
f 139//139 70//70 69//69
f 139//139 69//69 140//140
f 140//140 69//69 67//67
f 140//140 67//67 130//130
f 130//130 67//67 66//66
f 130//130 66//66 132//132
f 132//132 66//66 37//37
f 132//132 37//37 134//134
f 134//134 37//37 35//35
f 134//134 35//35 135//135
f 135//135 35//35 33//33
f 135//135 33//33 125//125
f 125//125 33//33 85//85
f 125//125 85//85 127//127
f 127//127 85//85 84//84
f 127//127 84//84 128//128
f 128//128 84//84 82//82
f 128//128 82//82 113//113
f 113//113 82//82 81//81
f 113//113 81//81 115//115
f 115//115 81//81 6//6
f 115//115 6//6 117//117
f 117//117 6//6 4//4
f 117//117 4//4 165//165
f 165//165 4//4 2//2
f 165//165 2//2 166//166
f 166//166 2//2 43//43
f 166//166 43//43 168//168
f 168//168 43//43 42//42
f 168//168 42//42 187//187
f 187//187 42//42 40//40
f 187//187 40//40 188//188
f 188//188 40//40 50//50
f 188//188 50//50 190//190
f 190//190 50//50 49//49
f 190//190 49//49 192//192
f 192//192 49//49 47//47
f 192//192 47//47 193//193
f 193//193 47//47 45//45
f 193//193 45//45 183//183
f 183//183 45//45 44//44
f 183//183 44//44 185//185
f 185//185 44//44 18//18
f 185//185 18//18 194//194
f 194//194 18//18 16//16
f 194//194 16//16 195//195
f 195//195 16//16 65//65
f 195//195 65//65 197//197
f 197//197 65//65 64//64
f 197//197 64//64 199//199
f 199//199 64//64 62//62
f 199//199 62//62 201//201
f 201//201 62//62 60//60
f 201//201 60//60 203//203
f 203//203 60//60 58//58
f 203//203 58//58 205//205
f 205//205 58//58 56//56
f 205//205 56//56 207//207
f 207//207 56//56 54//54
f 207//207 54//54 208//208
f 208//208 54//54 52//52
f 208//208 52//52 178//178
f 178//178 52//52 75//75
f 178//178 75//75 180//180
f 180//180 75//75 74//74
f 180//180 74//74 181//181
f 181//181 74//74 72//72
f 181//181 72//72 171//171
f 171//171 72//72 92//92
f 171//171 92//92 173//173
f 173//173 92//92 91//91
f 173//173 91//91 175//175
f 175//175 91//91 89//89
f 175//175 89//89 176//176
f 176//176 89//89 87//87
f 176//176 87//87 161//161
f 161//161 87//87 97//97
f 161//161 97//97 163//163
f 163//163 97//97 96//96
f 163//163 96//96 164//164
f 164//164 96//96 94//94
f 164//164 94//94 154//154
f 154//154 94//94 104//104
f 154//154 104//104 156//156
f 156//156 104//104 103//103
f 156//156 103//103 158//158
f 158//158 103//103 101//101
f 158//158 101//101 159//159
f 159//159 101//101 99//99
f 159//159 99//99 149//149
f 149//149 99//99 98//98
f 149//149 98//98 151//151
f 151//151 98//98 23//23
f 151//151 23//23 152//152
f 152//152 23//23 21//21
f 152//152 21//21 142//142
f 142//142 21//21 31//31
f 142//142 31//31 144//144
f 144//144 31//31 30//30
f 144//144 30//30 146//146
f 146//146 30//30 28//28
f 146//146 28//28 147//147
f 147//147 28//28 26//26
f 147//147 26//26 120//120
f 120//120 26//26 80//80
f 120//120 80//80 122//122
f 122//122 80//80 79//79
f 122//122 79//79 123//123
f 123//123 79//79 77//77
f 123//123 77//77 106//106
f 106//106 77//77 76//76
f 106//106 76//76 108//108
f 108//108 76//76 13//13
f 108//108 13//13 110//110
f 110//110 13//13 11//11
f 12//12 109//109 10//10
f 10//10 109//109 111//111
f 10//10 111//111 8//8
f 8//8 111//111 138//138
f 8//8 138//138 68//68
f 68//68 138//138 129//129
f 68//68 129//129 38//38
f 38//38 129//129 131//131
f 38//38 131//131 36//36
f 36//36 131//131 133//133
f 36//36 133//133 34//34
f 34//34 133//133 124//124
f 34//34 124//124 32//32
f 32//32 124//124 126//126
f 32//32 126//126 83//83
f 83//83 126//126 112//112
f 83//83 112//112 7//7
f 7//7 112//112 114//114
f 7//7 114//114 5//5
f 5//5 114//114 116//116
f 5//5 116//116 3//3
f 3//3 116//116 118//118
f 3//3 118//118 1//1
f 1//1 118//118 167//167
f 1//1 167//167 41//41
f 41//41 167//167 169//169
f 41//41 169//169 39//39
f 39//39 169//169 189//189
f 39//39 189//189 48//48
f 48//48 189//189 191//191
f 48//48 191//191 46//46
f 46//46 191//191 182//182
f 46//46 182//182 19//19
f 19//19 182//182 184//184
f 19//19 184//184 17//17
f 17//17 184//184 186//186
f 17//17 186//186 15//15
f 15//15 186//186 196//196
f 15//15 196//196 63//63
f 63//63 196//196 198//198
f 63//63 198//198 61//61
f 61//61 198//198 200//200
f 61//61 200//200 59//59
f 59//59 200//200 202//202
f 59//59 202//202 57//57
f 57//57 202//202 204//204
f 57//57 204//204 55//55
f 55//55 204//204 206//206
f 55//55 206//206 53//53
f 53//53 206//206 177//177
f 53//53 177//177 51//51
f 51//51 177//177 179//179
f 51//51 179//179 73//73
f 73//73 179//179 170//170
f 73//73 170//170 71//71
f 71//71 170//170 172//172
f 71//71 172//172 90//90
f 90//90 172//172 174//174
f 90//90 174//174 88//88
f 88//88 174//174 160//160
f 88//88 160//160 86//86
f 86//86 160//160 162//162
f 86//86 162//162 95//95
f 95//95 162//162 153//153
f 95//95 153//153 93//93
f 93//93 153//153 155//155
f 93//93 155//155 102//102
f 102//102 155//155 157//157
f 102//102 157//157 100//100
f 100//100 157//157 148//148
f 100//100 148//148 24//24
f 24//24 148//148 150//150
f 24//24 150//150 22//22
f 22//22 150//150 141//141
f 22//22 141//141 20//20
f 20//20 141//141 143//143
f 20//20 143//143 29//29
f 29//29 143//143 145//145
f 29//29 145//145 27//27
f 27//27 145//145 119//119
f 27//27 119//119 25//25
f 25//25 119//119 121//121
f 25//25 121//121 78//78
f 78//78 121//121 105//105
f 78//78 105//105 14//14
f 14//14 105//105 107//107
f 14//14 107//107 12//12
f 12//12 107//107 109//109
