# Blender v3.2.1 OBJ File: ''
# www.blender.org
mtllib cylinder3.mtl
o Cyl_3
v -1.307560 3.174996 25.365330
v 0.000000 3.174997 16.890011
v -2.117004 3.174997 16.756821
v -9.928281 3.174998 13.664117
v -13.632083 3.174996 21.430908
v -8.137302 3.174998 14.800706
v -11.356181 3.174996 22.718983
v -6.217993 3.174997 15.703866
v -8.959904 3.174996 23.766216
v -4.200621 3.174997 16.359348
v -6.468647 3.174996 24.561516
v -3.908821 3.174996 25.096443
v -11.562685 3.175002 -12.313998
v -18.640688 3.175003 -17.254532
v -13.014739 3.175002 -10.767717
v -20.315918 3.175002 -15.246431
v -14.261542 3.175001 -9.051639
v -21.775791 3.175002 -13.076726
v -15.283434 3.175001 -7.192827
v -23.004837 3.175002 -10.768414
v -16.064297 3.175001 -5.220596
v -23.990026 3.175001 -8.345965
v -16.591812 3.175000 -3.166048
v -16.064297 3.174999 5.218617
v -23.528627 3.174998 9.567899
v -15.283434 3.174999 7.190850
v -22.420040 3.174998 11.936421
v -14.261542 3.174999 9.049661
v -21.073795 3.174998 14.178403
v -13.014739 3.174998 10.765740
v -19.504164 3.174997 16.270077
v -11.562685 3.174998 12.312020
v -17.727781 3.174997 18.189274
v -15.763480 3.174997 19.915653
v 6.217993 3.175003 -15.705844
v 7.724516 3.175004 -24.197929
v 4.200621 3.175003 -16.361328
v 5.195621 3.175004 -24.863924
v 2.117004 3.175003 -16.758799
v 2.611654 3.175004 -25.266367
v 0.000000 3.175003 -16.891991
v 0.000000 3.175004 -25.400990
v -2.117004 3.175003 -16.758799
v -2.611654 3.175004 -25.266367
v -4.200621 3.175003 -16.361328
v 8.137300 3.174998 14.800706
v 13.632082 3.174996 21.430908
v 9.928282 3.174998 13.664117
v 15.763479 3.174997 19.915653
v 11.562685 3.174998 12.312020
v 17.727781 3.174997 18.189274
v 13.014738 3.174998 10.765740
v 19.504164 3.174997 16.270077
v 14.261541 3.174999 9.049661
v 21.073797 3.174998 14.178403
v 15.283434 3.174999 7.190850
v -24.720915 3.175001 -5.835058
v -25.189754 3.175000 -3.262308
v -16.857670 3.175000 -1.061584
v -25.391579 3.175000 -0.654987
v -16.857670 3.175000 1.059605
v -25.324245 3.175000 1.959267
v -16.591812 3.174999 3.164069
v -24.988468 3.174999 4.552742
v -24.387806 3.174999 7.097947
v 16.857668 3.175000 -1.061584
v 25.189756 3.175000 -3.262308
v 16.591814 3.175000 -3.166048
v 24.720915 3.175001 -5.835058
v 16.064295 3.175001 -5.220596
v 23.990026 3.175001 -8.345965
v 15.283434 3.175001 -7.192827
v 23.004839 3.175002 -10.768414
v 14.261541 3.175001 -9.051639
v 21.775793 3.175002 -13.076726
v 13.014738 3.175002 -10.767717
v 0.000000 3.174996 25.399010
v 1.307560 3.174996 25.365330
v 2.117004 3.174997 16.756821
v 3.908821 3.174996 25.096443
v 4.200621 3.174997 16.359348
v 6.468647 3.174996 24.561516
v 6.217993 3.174997 15.703866
v 8.959902 3.174996 23.766216
v 11.356184 3.174996 22.718983
v -5.195621 3.175004 -24.863924
v -7.724516 3.175004 -24.197929
v -6.217993 3.175003 -15.705844
v -10.171529 3.175004 -23.275440
v -8.137302 3.175002 -14.802685
v -12.510720 3.175004 -22.106236
v -9.928281 3.175002 -13.666095
v -14.717296 3.175003 -20.702709
v -16.767864 3.175003 -19.079741
v 20.315916 3.175002 -15.246431
v 18.640688 3.175003 -17.254532
v 11.562685 3.175002 -12.313998
v 16.767862 3.175003 -19.079741
v 9.928282 3.175002 -13.666095
v 14.717295 3.175003 -20.702709
v 8.137300 3.175002 -14.802685
v 12.510721 3.175004 -22.106236
v 10.171530 3.175004 -23.275440
v 22.420042 3.174998 11.936421
v 23.528627 3.174998 9.567899
v 16.064295 3.174999 5.218617
v 24.387808 3.174999 7.097947
v 16.591814 3.174999 3.164069
v 24.988470 3.174999 4.552742
v 16.857668 3.175000 1.059605
v 25.324247 3.175000 1.959267
v 25.391581 3.175000 -0.654987
v 1.307560 -3.175004 25.365330
v 0.000000 -3.175003 16.890011
v 2.117004 -3.175003 16.756821
v -16.857670 -3.175000 -1.061585
v -25.189754 -3.174999 -3.262309
v -16.591812 -3.174999 -3.166049
v -24.720915 -3.174999 -5.835059
v -16.064297 -3.174999 -5.220597
v -23.990026 -3.174999 -8.345967
v -15.283434 -3.174999 -7.192828
v -23.004837 -3.174998 -10.768416
v -14.261542 -3.174999 -9.051641
v -21.775791 -3.174998 -13.076728
v -13.014739 -3.174998 -10.767719
v 0.000000 -3.175004 25.399010
v -1.307560 -3.175004 25.365330
v -2.117004 -3.175003 16.756821
v -3.908821 -3.175004 25.096443
v -4.200621 -3.175003 16.359348
v -6.468647 -3.175004 24.561516
v -6.217993 -3.175003 15.703864
v -8.959904 -3.175004 23.766216
v -8.137302 -3.175002 14.800704
v 16.064295 -3.175001 5.218616
v 23.528627 -3.175002 9.567897
v 15.283434 -3.175001 7.190849
v 22.420042 -3.175002 11.936419
v 14.261541 -3.175001 9.049659
v 21.073797 -3.175002 14.178401
v 13.014738 -3.175002 10.765738
v 19.504164 -3.175003 16.270077
v 11.562685 -3.175002 12.312018
v 17.727781 -3.175003 18.189274
v 9.928282 -3.175002 13.664115
v -6.217993 -3.174997 -15.705846
v -7.724516 -3.174996 -24.197929
v -4.200621 -3.174997 -16.361328
v -5.195621 -3.174996 -24.863924
v -2.117004 -3.174997 -16.758799
v -2.611654 -3.174996 -25.266367
v 0.000000 -3.174997 -16.891991
v 0.000000 -3.174996 -25.400990
v 2.117004 -3.174997 -16.758799
v 2.611654 -3.174996 -25.266367
v 4.200621 -3.174997 -16.361328
v -20.315918 -3.174998 -15.246433
v -18.640688 -3.174997 -17.254532
v -11.562685 -3.174998 -12.314000
v -16.767864 -3.174997 -19.079741
v -9.928281 -3.174998 -13.666097
v -14.717296 -3.174997 -20.702709
v -8.137302 -3.174998 -14.802687
v -12.510720 -3.174996 -22.106236
v -10.171529 -3.174996 -23.275440
v 15.763479 -3.175003 19.915653
v 13.632082 -3.175004 21.430908
v 8.137300 -3.175002 14.800704
v 11.356184 -3.175004 22.718983
v 6.217993 -3.175003 15.703864
v 8.959902 -3.175004 23.766216
v 4.200621 -3.175003 16.359348
v 6.468647 -3.175004 24.561516
v 3.908821 -3.175004 25.096443
v -15.283434 -3.175001 7.190849
v -23.528627 -3.175002 9.567897
v -16.064297 -3.175001 5.218616
v -24.387806 -3.175001 7.097946
v -16.591812 -3.175000 3.164068
v -24.988468 -3.175001 4.552742
v -16.857670 -3.175000 1.059604
v -25.324245 -3.175000 1.959266
v -25.391579 -3.175000 -0.654988
v -11.356181 -3.175004 22.718983
v -13.632083 -3.175004 21.430908
v -9.928281 -3.175002 13.664115
v -15.763480 -3.175003 19.915653
v -11.562685 -3.175002 12.312018
v -17.727781 -3.175003 18.189274
v -13.014739 -3.175002 10.765738
v -19.504164 -3.175003 16.270077
v -14.261542 -3.175001 9.049659
v -21.073795 -3.175002 14.178401
v -22.420040 -3.175002 11.936419
v 5.195621 -3.174996 -24.863924
v 7.724516 -3.174996 -24.197929
v 6.217993 -3.174997 -15.705846
v 10.171530 -3.174996 -23.275440
v 8.137300 -3.174998 -14.802687
v 12.510721 -3.174996 -22.106236
v 9.928282 -3.174998 -13.666097
v 14.717295 -3.174997 -20.702709
v 11.562685 -3.174998 -12.314000
v 16.591814 -3.174999 -3.166049
v 25.189756 -3.174999 -3.262309
v 16.857668 -3.175000 -1.061585
v 25.391581 -3.175000 -0.654988
v 16.857668 -3.175000 1.059604
v 25.324247 -3.175000 1.959266
v 16.591814 -3.175000 3.164068
v 24.988470 -3.175001 4.552742
v 24.387808 -3.175001 7.097946
v 16.767862 -3.174997 -19.079741
v 18.640688 -3.174997 -17.254532
v 13.014738 -3.174998 -10.767719
v 20.315916 -3.174998 -15.246433
v 14.261541 -3.174999 -9.051641
v 21.775793 -3.174998 -13.076728
v 15.283434 -3.174999 -7.192828
v 23.004839 -3.174998 -10.768416
v 16.064295 -3.174999 -5.220597
v 23.990026 -3.174999 -8.345967
v 24.720915 -3.174999 -5.835059
vn -0.0460 0.6985 0.7141
vn -0.0000 0.7215 -0.6924
vn 0.0868 0.7215 -0.6869
vn 0.4070 0.7215 -0.5602
vn -0.3855 0.6957 0.6061
vn 0.3336 0.7215 -0.6068
vn -0.3212 0.6957 0.6425
vn 0.2549 0.7215 -0.6438
vn -0.2534 0.6957 0.6722
vn 0.1722 0.7215 -0.6706
vn -0.1829 0.6957 0.6946
vn -0.1105 0.6957 0.7098
vn 0.4740 0.7215 0.5047
vn -0.5272 0.6957 -0.4879
vn 0.5335 0.7215 0.4414
vn -0.5745 0.6957 -0.4312
vn 0.5846 0.7215 0.3710
vn -0.6158 0.6957 -0.3698
vn 0.6265 0.7215 0.2948
vn -0.6506 0.6957 -0.3045
vn 0.6585 0.7215 0.2140
vn -0.6785 0.6957 -0.2360
vn 0.6801 0.7215 0.1297
vn 0.6585 0.7215 -0.2140
vn -0.6654 0.6957 0.2706
vn 0.6265 0.7215 -0.2948
vn -0.6341 0.6957 0.3376
vn 0.5846 0.7215 -0.3710
vn -0.5960 0.6957 0.4010
vn 0.5335 0.7215 -0.4414
vn -0.5516 0.6957 0.4602
vn 0.4740 0.7215 -0.5047
vn -0.5014 0.6957 0.5144
vn -0.4458 0.6957 0.5633
vn -0.2549 0.7215 0.6438
vn 0.2185 0.6957 -0.6843
vn -0.1722 0.7215 0.6706
vn 0.1469 0.6957 -0.7031
vn -0.0868 0.7215 0.6869
vn 0.0739 0.6957 -0.7145
vn -0.0000 0.7215 0.6924
vn -0.0000 0.6957 -0.7183
vn 0.0868 0.7215 0.6869
vn -0.0739 0.6957 -0.7145
vn 0.1722 0.7215 0.6706
vn -0.3336 0.7215 -0.6068
vn 0.3855 0.6957 0.6061
vn -0.4070 0.7215 -0.5602
vn 0.4458 0.6957 0.5633
vn -0.4740 0.7215 -0.5047
vn 0.5014 0.6957 0.5144
vn -0.5335 0.7215 -0.4414
vn 0.5516 0.6957 0.4602
vn -0.5846 0.7215 -0.3710
vn 0.5960 0.6957 0.4010
vn -0.6265 0.7215 -0.2948
vn -0.6991 0.6957 -0.1650
vn -0.7124 0.6957 -0.0922
vn 0.6910 0.7215 0.0435
vn -0.7181 0.6957 -0.0185
vn 0.6910 0.7215 -0.0435
vn -0.7162 0.6957 0.0554
vn 0.6801 0.7215 -0.1297
vn -0.7067 0.6957 0.1288
vn -0.6897 0.6957 0.2008
vn -0.6910 0.7215 0.0435
vn 0.7124 0.6957 -0.0922
vn -0.6801 0.7215 0.1297
vn 0.6991 0.6957 -0.1650
vn -0.6585 0.7215 0.2140
vn 0.6785 0.6957 -0.2360
vn -0.6265 0.7215 0.2948
vn 0.6506 0.6957 -0.3045
vn -0.5846 0.7215 0.3710
vn 0.6158 0.6957 -0.3698
vn -0.5335 0.7215 0.4414
vn 0.0000 0.7014 0.7128
vn 0.0460 0.6985 0.7141
vn -0.0868 0.7215 -0.6869
vn 0.1105 0.6957 0.7098
vn -0.1722 0.7215 -0.6706
vn 0.1829 0.6957 0.6946
vn -0.2549 0.7215 -0.6438
vn 0.2534 0.6957 0.6722
vn 0.3212 0.6957 0.6425
vn -0.1469 0.6957 -0.7031
vn -0.2185 0.6957 -0.6843
vn 0.2549 0.7215 0.6438
vn -0.2877 0.6957 -0.6582
vn 0.3336 0.7215 0.6068
vn -0.3538 0.6957 -0.6252
vn 0.4070 0.7215 0.5602
vn -0.4162 0.6957 -0.5855
vn -0.4742 0.6957 -0.5396
vn 0.5745 0.6957 -0.4312
vn 0.5272 0.6957 -0.4879
vn -0.4740 0.7215 0.5047
vn 0.4742 0.6957 -0.5396
vn -0.4070 0.7215 0.5602
vn 0.4162 0.6957 -0.5855
vn -0.3336 0.7215 0.6068
vn 0.3538 0.6957 -0.6252
vn 0.2877 0.6957 -0.6582
vn 0.6341 0.6957 0.3376
vn 0.6654 0.6957 0.2706
vn -0.6585 0.7215 -0.2140
vn 0.6897 0.6957 0.2008
vn -0.6801 0.7215 -0.1297
vn 0.7067 0.6957 0.1288
vn -0.6910 0.7215 -0.0435
vn 0.7162 0.6957 0.0554
vn 0.7181 0.6957 -0.0185
vn 0.0460 -0.6985 0.7141
vn 0.0000 -0.7215 -0.6924
vn -0.0868 -0.7215 -0.6869
vn 0.6910 -0.7215 0.0435
vn -0.7124 -0.6957 -0.0922
vn 0.6801 -0.7215 0.1297
vn -0.6991 -0.6957 -0.1650
vn 0.6585 -0.7215 0.2140
vn -0.6785 -0.6957 -0.2360
vn 0.6265 -0.7215 0.2948
vn -0.6506 -0.6957 -0.3045
vn 0.5846 -0.7215 0.3710
vn -0.6158 -0.6957 -0.3698
vn 0.5335 -0.7215 0.4414
vn -0.0000 -0.7014 0.7128
vn -0.0460 -0.6985 0.7141
vn 0.0868 -0.7215 -0.6869
vn -0.1105 -0.6957 0.7098
vn 0.1722 -0.7215 -0.6706
vn -0.1829 -0.6957 0.6946
vn 0.2549 -0.7215 -0.6438
vn -0.2534 -0.6957 0.6722
vn 0.3336 -0.7215 -0.6068
vn -0.6585 -0.7215 -0.2140
vn 0.6654 -0.6957 0.2706
vn -0.6265 -0.7215 -0.2948
vn 0.6341 -0.6957 0.3376
vn -0.5846 -0.7215 -0.3710
vn 0.5960 -0.6957 0.4010
vn -0.5335 -0.7215 -0.4414
vn 0.5516 -0.6957 0.4602
vn -0.4740 -0.7215 -0.5047
vn 0.5014 -0.6957 0.5144
vn -0.4070 -0.7215 -0.5602
vn 0.2549 -0.7215 0.6438
vn -0.2185 -0.6957 -0.6843
vn 0.1722 -0.7215 0.6706
vn -0.1469 -0.6957 -0.7031
vn 0.0868 -0.7215 0.6869
vn -0.0739 -0.6957 -0.7145
vn 0.0000 -0.7215 0.6924
vn 0.0000 -0.6957 -0.7183
vn -0.0868 -0.7215 0.6869
vn 0.0739 -0.6957 -0.7145
vn -0.1722 -0.7215 0.6706
vn -0.5745 -0.6957 -0.4312
vn -0.5272 -0.6957 -0.4879
vn 0.4740 -0.7215 0.5047
vn -0.4742 -0.6957 -0.5396
vn 0.4070 -0.7215 0.5602
vn -0.4162 -0.6957 -0.5855
vn 0.3336 -0.7215 0.6068
vn -0.3538 -0.6957 -0.6252
vn -0.2877 -0.6957 -0.6582
vn 0.4458 -0.6957 0.5633
vn 0.3855 -0.6957 0.6061
vn -0.3336 -0.7215 -0.6068
vn 0.3212 -0.6957 0.6425
vn -0.2549 -0.7215 -0.6438
vn 0.2534 -0.6957 0.6722
vn -0.1722 -0.7215 -0.6706
vn 0.1829 -0.6957 0.6946
vn 0.1105 -0.6957 0.7098
vn 0.6265 -0.7215 -0.2948
vn -0.6654 -0.6957 0.2706
vn 0.6585 -0.7215 -0.2140
vn -0.6897 -0.6957 0.2008
vn 0.6801 -0.7215 -0.1297
vn -0.7067 -0.6957 0.1288
vn 0.6910 -0.7215 -0.0435
vn -0.7162 -0.6957 0.0554
vn -0.7181 -0.6957 -0.0185
vn -0.3212 -0.6957 0.6425
vn -0.3855 -0.6957 0.6061
vn 0.4070 -0.7215 -0.5602
vn -0.4458 -0.6957 0.5633
vn 0.4740 -0.7215 -0.5047
vn -0.5014 -0.6957 0.5144
vn 0.5335 -0.7215 -0.4414
vn -0.5516 -0.6957 0.4602
vn 0.5846 -0.7215 -0.3710
vn -0.5960 -0.6957 0.4010
vn -0.6341 -0.6957 0.3376
vn 0.1469 -0.6957 -0.7031
vn 0.2185 -0.6957 -0.6843
vn -0.2549 -0.7215 0.6438
vn 0.2877 -0.6957 -0.6582
vn -0.3336 -0.7215 0.6068
vn 0.3538 -0.6957 -0.6252
vn -0.4070 -0.7215 0.5602
vn 0.4162 -0.6957 -0.5855
vn -0.4740 -0.7215 0.5047
vn -0.6801 -0.7215 0.1297
vn 0.7124 -0.6957 -0.0922
vn -0.6910 -0.7215 0.0435
vn 0.7181 -0.6957 -0.0185
vn -0.6910 -0.7215 -0.0435
vn 0.7162 -0.6957 0.0554
vn -0.6801 -0.7215 -0.1297
vn 0.7067 -0.6957 0.1288
vn 0.6897 -0.6957 0.2008
vn 0.4742 -0.6957 -0.5396
vn 0.5272 -0.6957 -0.4879
vn -0.5335 -0.7215 0.4414
vn 0.5745 -0.6957 -0.4312
vn -0.5846 -0.7215 0.3710
vn 0.6158 -0.6957 -0.3698
vn -0.6265 -0.7215 0.2948
vn 0.6506 -0.6957 -0.3045
vn -0.6585 -0.7215 0.2140
vn 0.6785 -0.6957 -0.2360
vn 0.6991 -0.6957 -0.1650
usemtl Default_OBJ.002
s 1
f 1//1 2//2 3//3
f 4//4 5//5 6//6
f 6//6 5//5 7//7
f 6//6 7//7 8//8
f 8//8 7//7 9//9
f 8//8 9//9 10//10
f 10//10 9//9 11//11
f 10//10 11//11 3//3
f 3//3 11//11 12//12
f 3//3 12//12 1//1
f 13//13 14//14 15//15
f 15//15 14//14 16//16
f 15//15 16//16 17//17
f 17//17 16//16 18//18
f 17//17 18//18 19//19
f 19//19 18//18 20//20
f 19//19 20//20 21//21
f 21//21 20//20 22//22
f 21//21 22//22 23//23
f 24//24 25//25 26//26
f 26//26 25//25 27//27
f 26//26 27//27 28//28
f 28//28 27//27 29//29
f 28//28 29//29 30//30
f 30//30 29//29 31//31
f 30//30 31//31 32//32
f 32//32 31//31 33//33
f 32//32 33//33 4//4
f 4//4 33//33 34//34
f 4//4 34//34 5//5
f 35//35 36//36 37//37
f 37//37 36//36 38//38
f 37//37 38//38 39//39
f 39//39 38//38 40//40
f 39//39 40//40 41//41
f 41//41 40//40 42//42
f 41//41 42//42 43//43
f 43//43 42//42 44//44
f 43//43 44//44 45//45
f 46//46 47//47 48//48
f 48//48 47//47 49//49
f 48//48 49//49 50//50
f 50//50 49//49 51//51
f 50//50 51//51 52//52
f 52//52 51//51 53//53
f 52//52 53//53 54//54
f 54//54 53//53 55//55
f 54//54 55//55 56//56
f 22//22 57//57 23//23
f 23//23 57//57 58//58
f 23//23 58//58 59//59
f 59//59 58//58 60//60
f 59//59 60//60 61//61
f 61//61 60//60 62//62
f 61//61 62//62 63//63
f 63//63 62//62 64//64
f 63//63 64//64 24//24
f 24//24 64//64 65//65
f 24//24 65//65 25//25
f 66//66 67//67 68//68
f 68//68 67//67 69//69
f 68//68 69//69 70//70
f 70//70 69//69 71//71
f 70//70 71//71 72//72
f 72//72 71//71 73//73
f 72//72 73//73 74//74
f 74//74 73//73 75//75
f 74//74 75//75 76//76
f 1//1 77//77 2//2
f 2//2 77//77 78//78
f 2//2 78//78 79//79
f 79//79 78//78 80//80
f 79//79 80//80 81//81
f 81//81 80//80 82//82
f 81//81 82//82 83//83
f 83//83 82//82 84//84
f 83//83 84//84 46//46
f 46//46 84//84 85//85
f 46//46 85//85 47//47
f 44//44 86//86 45//45
f 45//45 86//86 87//87
f 45//45 87//87 88//88
f 88//88 87//87 89//89
f 88//88 89//89 90//90
f 90//90 89//89 91//91
f 90//90 91//91 92//92
f 92//92 91//91 93//93
f 92//92 93//93 13//13
f 13//13 93//93 94//94
f 13//13 94//94 14//14
f 75//75 95//95 76//76
f 76//76 95//95 96//96
f 76//76 96//96 97//97
f 97//97 96//96 98//98
f 97//97 98//98 99//99
f 99//99 98//98 100//100
f 99//99 100//100 101//101
f 101//101 100//100 102//102
f 101//101 102//102 35//35
f 35//35 102//102 103//103
f 35//35 103//103 36//36
f 55//55 104//104 56//56
f 56//56 104//104 105//105
f 56//56 105//105 106//106
f 106//106 105//105 107//107
f 106//106 107//107 108//108
f 108//108 107//107 109//109
f 108//108 109//109 110//110
f 110//110 109//109 111//111
f 110//110 111//111 66//66
f 66//66 111//111 112//112
f 66//66 112//112 67//67
f 113//113 114//114 115//115
f 116//116 117//117 118//118
f 118//118 117//117 119//119
f 118//118 119//119 120//120
f 120//120 119//119 121//121
f 120//120 121//121 122//122
f 122//122 121//121 123//123
f 122//122 123//123 124//124
f 124//124 123//123 125//125
f 124//124 125//125 126//126
f 113//113 127//127 114//114
f 114//114 127//127 128//128
f 114//114 128//128 129//129
f 129//129 128//128 130//130
f 129//129 130//130 131//131
f 131//131 130//130 132//132
f 131//131 132//132 133//133
f 133//133 132//132 134//134
f 133//133 134//134 135//135
f 136//136 137//137 138//138
f 138//138 137//137 139//139
f 138//138 139//139 140//140
f 140//140 139//139 141//141
f 140//140 141//141 142//142
f 142//142 141//141 143//143
f 142//142 143//143 144//144
f 144//144 143//143 145//145
f 144//144 145//145 146//146
f 147//147 148//148 149//149
f 149//149 148//148 150//150
f 149//149 150//150 151//151
f 151//151 150//150 152//152
f 151//151 152//152 153//153
f 153//153 152//152 154//154
f 153//153 154//154 155//155
f 155//155 154//154 156//156
f 155//155 156//156 157//157
f 125//125 158//158 126//126
f 126//126 158//158 159//159
f 126//126 159//159 160//160
f 160//160 159//159 161//161
f 160//160 161//161 162//162
f 162//162 161//161 163//163
f 162//162 163//163 164//164
f 164//164 163//163 165//165
f 164//164 165//165 147//147
f 147//147 165//165 166//166
f 147//147 166//166 148//148
f 145//145 167//167 146//146
f 146//146 167//167 168//168
f 146//146 168//168 169//169
f 169//169 168//168 170//170
f 169//169 170//170 171//171
f 171//171 170//170 172//172
f 171//171 172//172 173//173
f 173//173 172//172 174//174
f 173//173 174//174 115//115
f 115//115 174//174 175//175
f 115//115 175//175 113//113
f 176//176 177//177 178//178
f 178//178 177//177 179//179
f 178//178 179//179 180//180
f 180//180 179//179 181//181
f 180//180 181//181 182//182
f 182//182 181//181 183//183
f 182//182 183//183 116//116
f 116//116 183//183 184//184
f 116//116 184//184 117//117
f 134//134 185//185 135//135
f 135//135 185//185 186//186
f 135//135 186//186 187//187
f 187//187 186//186 188//188
f 187//187 188//188 189//189
f 189//189 188//188 190//190
f 189//189 190//190 191//191
f 191//191 190//190 192//192
f 191//191 192//192 193//193
f 193//193 192//192 194//194
f 193//193 194//194 176//176
f 176//176 194//194 195//195
f 176//176 195//195 177//177
f 156//156 196//196 157//157
f 157//157 196//196 197//197
f 157//157 197//197 198//198
f 198//198 197//197 199//199
f 198//198 199//199 200//200
f 200//200 199//199 201//201
f 200//200 201//201 202//202
f 202//202 201//201 203//203
f 202//202 203//203 204//204
f 205//205 206//206 207//207
f 207//207 206//206 208//208
f 207//207 208//208 209//209
f 209//209 208//208 210//210
f 209//209 210//210 211//211
f 211//211 210//210 212//212
f 211//211 212//212 136//136
f 136//136 212//212 213//213
f 136//136 213//213 137//137
f 203//203 214//214 204//204
f 204//204 214//214 215//215
f 204//204 215//215 216//216
f 216//216 215//215 217//217
f 216//216 217//217 218//218
f 218//218 217//217 219//219
f 218//218 219//219 220//220
f 220//220 219//219 221//221
f 220//220 221//221 222//222
f 222//222 221//221 223//223
f 222//222 223//223 205//205
f 205//205 223//223 224//224
f 205//205 224//224 206//206
f 78//78 77//77 127//127
f 127//127 77//77 128//128
f 77//77 1//1 128//128
f 128//128 1//1 12//12
f 128//128 12//12 130//130
f 130//130 12//12 11//11
f 130//130 11//11 132//132
f 132//132 11//11 9//9
f 132//132 9//9 134//134
f 134//134 9//9 7//7
f 134//134 7//7 185//185
f 185//185 7//7 5//5
f 185//185 5//5 186//186
f 186//186 5//5 34//34
f 186//186 34//34 188//188
f 188//188 34//34 33//33
f 188//188 33//33 190//190
f 190//190 33//33 31//31
f 190//190 31//31 192//192
f 192//192 31//31 29//29
f 192//192 29//29 194//194
f 194//194 29//29 27//27
f 194//194 27//27 195//195
f 195//195 27//27 25//25
f 195//195 25//25 177//177
f 177//177 25//25 65//65
f 177//177 65//65 179//179
f 179//179 65//65 64//64
f 179//179 64//64 181//181
f 181//181 64//64 62//62
f 181//181 62//62 183//183
f 183//183 62//62 60//60
f 183//183 60//60 184//184
f 184//184 60//60 58//58
f 184//184 58//58 117//117
f 117//117 58//58 57//57
f 117//117 57//57 119//119
f 119//119 57//57 22//22
f 119//119 22//22 121//121
f 121//121 22//22 20//20
f 121//121 20//20 123//123
f 123//123 20//20 18//18
f 123//123 18//18 125//125
f 125//125 18//18 16//16
f 125//125 16//16 158//158
f 158//158 16//16 14//14
f 158//158 14//14 159//159
f 159//159 14//14 94//94
f 159//159 94//94 161//161
f 161//161 94//94 93//93
f 161//161 93//93 163//163
f 163//163 93//93 91//91
f 163//163 91//91 165//165
f 165//165 91//91 89//89
f 165//165 89//89 166//166
f 166//166 89//89 87//87
f 166//166 87//87 148//148
f 148//148 87//87 86//86
f 148//148 86//86 150//150
f 150//150 86//86 44//44
f 150//150 44//44 152//152
f 152//152 44//44 42//42
f 152//152 42//42 154//154
f 154//154 42//42 40//40
f 154//154 40//40 156//156
f 156//156 40//40 38//38
f 156//156 38//38 196//196
f 196//196 38//38 36//36
f 196//196 36//36 197//197
f 197//197 36//36 103//103
f 197//197 103//103 199//199
f 199//199 103//103 102//102
f 199//199 102//102 201//201
f 201//201 102//102 100//100
f 201//201 100//100 203//203
f 203//203 100//100 98//98
f 203//203 98//98 214//214
f 214//214 98//98 96//96
f 214//214 96//96 215//215
f 215//215 96//96 95//95
f 215//215 95//95 217//217
f 217//217 95//95 75//75
f 217//217 75//75 219//219
f 219//219 75//75 73//73
f 219//219 73//73 221//221
f 221//221 73//73 71//71
f 221//221 71//71 223//223
f 223//223 71//71 69//69
f 223//223 69//69 224//224
f 224//224 69//69 67//67
f 224//224 67//67 206//206
f 206//206 67//67 112//112
f 206//206 112//112 208//208
f 208//208 112//112 111//111
f 208//208 111//111 210//210
f 210//210 111//111 109//109
f 210//210 109//109 212//212
f 212//212 109//109 107//107
f 212//212 107//107 213//213
f 213//213 107//107 105//105
f 213//213 105//105 137//137
f 137//137 105//105 104//104
f 137//137 104//104 139//139
f 139//139 104//104 55//55
f 139//139 55//55 141//141
f 141//141 55//55 53//53
f 141//141 53//53 143//143
f 143//143 53//53 51//51
f 143//143 51//51 145//145
f 145//145 51//51 49//49
f 145//145 49//49 167//167
f 167//167 49//49 47//47
f 167//167 47//47 168//168
f 168//168 47//47 85//85
f 168//168 85//85 170//170
f 170//170 85//85 84//84
f 170//170 84//84 172//172
f 172//172 84//84 82//82
f 172//172 82//82 174//174
f 174//174 82//82 80//80
f 174//174 80//80 175//175
f 175//175 80//80 78//78
f 175//175 78//78 113//113
f 113//113 78//78 127//127
f 41//41 153//153 39//39
f 39//39 153//153 155//155
f 39//39 155//155 37//37
f 37//37 155//155 157//157
f 37//37 157//157 35//35
f 35//35 157//157 198//198
f 35//35 198//198 101//101
f 101//101 198//198 200//200
f 101//101 200//200 99//99
f 99//99 200//200 202//202
f 99//99 202//202 97//97
f 97//97 202//202 204//204
f 97//97 204//204 76//76
f 76//76 204//204 216//216
f 76//76 216//216 74//74
f 74//74 216//216 218//218
f 74//74 218//218 72//72
f 72//72 218//218 220//220
f 72//72 220//220 70//70
f 70//70 220//220 222//222
f 70//70 222//222 68//68
f 68//68 222//222 205//205
f 68//68 205//205 66//66
f 66//66 205//205 207//207
f 66//66 207//207 110//110
f 110//110 207//207 209//209
f 110//110 209//209 108//108
f 108//108 209//209 211//211
f 108//108 211//211 106//106
f 106//106 211//211 136//136
f 106//106 136//136 56//56
f 56//56 136//136 138//138
f 56//56 138//138 54//54
f 54//54 138//138 140//140
f 54//54 140//140 52//52
f 52//52 140//140 142//142
f 52//52 142//142 50//50
f 50//50 142//142 144//144
f 50//50 144//144 48//48
f 48//48 144//144 146//146
f 48//48 146//146 46//46
f 46//46 146//146 169//169
f 46//46 169//169 83//83
f 83//83 169//169 171//171
f 83//83 171//171 81//81
f 81//81 171//171 173//173
f 81//81 173//173 79//79
f 79//79 173//173 115//115
f 79//79 115//115 2//2
f 2//2 115//115 114//114
f 2//2 114//114 3//3
f 3//3 114//114 129//129
f 3//3 129//129 10//10
f 10//10 129//129 131//131
f 10//10 131//131 8//8
f 8//8 131//131 133//133
f 8//8 133//133 6//6
f 6//6 133//133 135//135
f 6//6 135//135 4//4
f 4//4 135//135 187//187
f 4//4 187//187 32//32
f 32//32 187//187 189//189
f 32//32 189//189 30//30
f 30//30 189//189 191//191
f 30//30 191//191 28//28
f 28//28 191//191 193//193
f 28//28 193//193 26//26
f 26//26 193//193 176//176
f 26//26 176//176 24//24
f 24//24 176//176 178//178
f 24//24 178//178 63//63
f 63//63 178//178 180//180
f 63//63 180//180 61//61
f 61//61 180//180 182//182
f 61//61 182//182 59//59
f 59//59 182//182 116//116
f 59//59 116//116 23//23
f 23//23 116//116 118//118
f 23//23 118//118 21//21
f 21//21 118//118 120//120
f 21//21 120//120 19//19
f 19//19 120//120 122//122
f 19//19 122//122 17//17
f 17//17 122//122 124//124
f 17//17 124//124 15//15
f 15//15 124//124 126//126
f 15//15 126//126 13//13
f 13//13 126//126 160//160
f 13//13 160//160 92//92
f 92//92 160//160 162//162
f 92//92 162//162 90//90
f 90//90 162//162 164//164
f 90//90 164//164 88//88
f 88//88 164//164 147//147
f 88//88 147//147 45//45
f 45//45 147//147 149//149
f 45//45 149//149 43//43
f 43//43 149//149 151//151
f 43//43 151//151 41//41
f 41//41 151//151 153//153
