# Blender v3.2.1 OBJ File: ''
# www.blender.org
mtllib cylinder1.mtl
o Cyl_1
v 0.000000 -3.174999 -8.509001
v 0.889433 3.175001 -8.462386
v 0.889433 -3.174999 -8.462388
v 1.769120 3.175001 -8.323056
v 1.769120 -3.174999 -8.323058
v 2.629426 3.175001 -8.092540
v 2.629426 -3.174999 -8.092542
v 3.460922 3.175001 -7.773358
v 3.460922 -3.174999 -7.773359
v 4.254500 3.175001 -7.369009
v 4.254500 -3.174999 -7.369010
v 5.001465 3.175001 -6.883925
v 5.001465 -3.174999 -6.883926
v 5.693632 3.175001 -6.323419
v 5.693632 -3.174999 -6.323420
v 6.323420 3.175001 -5.693632
v 6.323420 -3.174999 -5.693633
v 6.883925 3.175000 -5.001464
v 6.883925 -3.174999 -5.001465
v 7.369010 3.175000 -4.254499
v 7.369010 -3.174999 -4.254500
v 7.773358 3.175000 -3.460922
v 7.773358 -3.175000 -3.460922
v 8.092540 3.175000 -2.629425
v 8.092540 -3.175000 -2.629426
v 8.323058 3.175000 -1.769120
v 8.323058 -3.175000 -1.769121
v 8.462388 3.175000 -0.889432
v 8.462388 -3.175000 -0.889433
v 8.509000 3.175000 0.000001
v 8.509000 -3.175000 -0.000000
v 8.462388 3.174999 0.889434
v 8.462388 -3.175000 0.889432
v 8.323058 3.174999 1.769121
v 8.323058 -3.175000 1.769120
v 8.092540 3.174999 2.629427
v 8.092540 -3.175001 2.629426
v 7.773358 3.174999 3.460923
v 7.773358 -3.175001 3.460922
v 7.369010 3.174999 4.254501
v 7.369010 -3.175001 4.254500
v 6.883925 3.174999 5.001465
v 6.883925 -3.175001 5.001464
v 6.323420 3.174999 5.693633
v 6.323420 -3.175001 5.693632
v 5.693632 3.174999 6.323420
v 5.693632 -3.175001 6.323419
v 5.001465 3.174999 6.883926
v 5.001465 -3.175001 6.883925
v 4.254500 3.174999 7.369010
v 4.254500 -3.175001 7.369009
v 3.460922 3.174999 7.773359
v 3.460922 -3.175001 7.773358
v 2.629426 3.174998 8.092541
v 2.629426 -3.175002 8.092539
v 1.769120 3.174998 8.323059
v 1.769120 -3.175002 8.323057
v 0.889433 3.174998 8.462389
v 0.889433 -3.175002 8.462387
v 0.000000 3.174998 8.509001
v 0.000000 -3.175002 8.508999
v -0.889432 3.174998 8.462389
v -0.889432 -3.175002 8.462387
v -1.769121 3.174998 8.323059
v -1.769121 -3.175002 8.323057
v -2.629426 3.174998 8.092541
v -2.629426 -3.175002 8.092539
v -3.460922 3.174999 7.773359
v -3.460922 -3.175001 7.773358
v -4.254500 3.174999 7.369010
v -4.254500 -3.175001 7.369009
v -5.001465 3.174999 6.883926
v -5.001465 -3.175001 6.883925
v -5.693632 3.174999 6.323420
v -5.693632 -3.175001 6.323419
v -6.323420 3.174999 5.693633
v -6.323420 -3.175001 5.693632
v -6.883926 3.174999 5.001465
v -6.883926 -3.175001 5.001464
v -7.369010 3.174999 4.254501
v -7.369010 -3.175001 4.254500
v -7.773358 3.174999 3.460923
v -7.773358 -3.175001 3.460922
v -8.092541 3.174999 2.629427
v -8.092541 -3.175001 2.629426
v -8.323057 3.174999 1.769121
v -8.323057 -3.175000 1.769120
v -8.462387 3.174999 0.889434
v -8.462387 -3.175000 0.889432
v -8.509000 3.175000 0.000001
v -8.509000 -3.175000 -0.000000
v -8.462387 3.175000 -0.889432
v -8.462387 -3.175000 -0.889433
v -8.323057 3.175000 -1.769120
v -8.323057 -3.175000 -1.769121
v -8.092541 3.175000 -2.629425
v -8.092541 -3.175000 -2.629426
v -7.773358 3.175000 -3.460922
v -7.773358 -3.175000 -3.460922
v -7.369010 3.175000 -4.254499
v -7.369010 -3.174999 -4.254500
v -6.883926 3.175000 -5.001464
v -6.883926 -3.174999 -5.001465
v -6.323420 3.175001 -5.693632
v -6.323420 -3.174999 -5.693633
v -5.693632 3.175001 -6.323419
v -5.693632 -3.174999 -6.323420
v -5.001465 3.175001 -6.883925
v -5.001465 -3.174999 -6.883926
v -4.254500 3.175001 -7.369009
v -4.254500 -3.174999 -7.369010
v -3.460922 3.175001 -7.773358
v -3.460922 -3.174999 -7.773359
v -2.629426 3.175001 -8.092540
v -2.629426 -3.174999 -8.092542
v -1.769121 3.175001 -8.323056
v -1.769121 -3.174999 -8.323058
v -0.889432 3.175001 -8.462386
v -0.889432 -3.174999 -8.462388
v 0.000000 3.175001 -8.508999
v 0.000000 3.175000 0.000001
v 0.000000 -3.175000 -0.000000
vn -0.0000 -0.6955 -0.7185
vn 0.0751 0.6955 -0.7146
vn 0.0751 -0.6955 -0.7146
vn 0.1494 0.6955 -0.7028
vn 0.1494 -0.6955 -0.7028
vn 0.2220 0.6955 -0.6833
vn 0.2220 -0.6955 -0.6833
vn 0.2922 0.6955 -0.6564
vn 0.2922 -0.6955 -0.6564
vn 0.3593 0.6955 -0.6222
vn 0.3593 -0.6955 -0.6222
vn 0.4223 0.6955 -0.5813
vn 0.4223 -0.6955 -0.5813
vn 0.4808 0.6955 -0.5340
vn 0.4808 -0.6955 -0.5340
vn 0.5340 0.6955 -0.4808
vn 0.5340 -0.6955 -0.4808
vn 0.5813 0.6955 -0.4223
vn 0.5813 -0.6955 -0.4223
vn 0.6222 0.6955 -0.3593
vn 0.6222 -0.6955 -0.3593
vn 0.6564 0.6955 -0.2922
vn 0.6564 -0.6955 -0.2922
vn 0.6833 0.6955 -0.2220
vn 0.6833 -0.6955 -0.2220
vn 0.7028 0.6955 -0.1494
vn 0.7028 -0.6955 -0.1494
vn 0.7146 0.6955 -0.0751
vn 0.7146 -0.6955 -0.0751
vn 0.7185 0.6955 -0.0000
vn 0.7185 -0.6955 -0.0000
vn 0.7146 0.6955 0.0751
vn 0.7146 -0.6955 0.0751
vn 0.7028 0.6955 0.1494
vn 0.7028 -0.6955 0.1494
vn 0.6833 0.6955 0.2220
vn 0.6833 -0.6955 0.2220
vn 0.6564 0.6955 0.2922
vn 0.6564 -0.6955 0.2922
vn 0.6222 0.6955 0.3593
vn 0.6222 -0.6955 0.3593
vn 0.5813 0.6955 0.4223
vn 0.5813 -0.6955 0.4223
vn 0.5340 0.6955 0.4808
vn 0.5340 -0.6955 0.4808
vn 0.4808 0.6955 0.5340
vn 0.4808 -0.6955 0.5340
vn 0.4223 0.6955 0.5813
vn 0.4223 -0.6955 0.5813
vn 0.3593 0.6955 0.6222
vn 0.3593 -0.6955 0.6222
vn 0.2922 0.6955 0.6564
vn 0.2922 -0.6955 0.6564
vn 0.2220 0.6955 0.6833
vn 0.2220 -0.6955 0.6833
vn 0.1494 0.6955 0.7028
vn 0.1494 -0.6955 0.7028
vn 0.0751 0.6955 0.7146
vn 0.0751 -0.6955 0.7146
vn -0.0000 0.6955 0.7185
vn -0.0000 -0.6955 0.7185
vn -0.0751 0.6955 0.7146
vn -0.0751 -0.6955 0.7146
vn -0.1494 0.6955 0.7028
vn -0.1494 -0.6955 0.7028
vn -0.2220 0.6955 0.6833
vn -0.2220 -0.6955 0.6833
vn -0.2922 0.6955 0.6564
vn -0.2922 -0.6955 0.6564
vn -0.3593 0.6955 0.6222
vn -0.3593 -0.6955 0.6222
vn -0.4223 0.6955 0.5813
vn -0.4223 -0.6955 0.5813
vn -0.4808 0.6955 0.5340
vn -0.4808 -0.6955 0.5340
vn -0.5340 0.6955 0.4808
vn -0.5340 -0.6955 0.4808
vn -0.5813 0.6955 0.4223
vn -0.5813 -0.6955 0.4223
vn -0.6222 0.6955 0.3593
vn -0.6222 -0.6955 0.3593
vn -0.6564 0.6955 0.2922
vn -0.6564 -0.6955 0.2922
vn -0.6833 0.6955 0.2220
vn -0.6833 -0.6955 0.2220
vn -0.7028 0.6955 0.1494
vn -0.7028 -0.6955 0.1494
vn -0.7146 0.6955 0.0751
vn -0.7146 -0.6955 0.0751
vn -0.7185 0.6955 -0.0000
vn -0.7185 -0.6955 -0.0000
vn -0.7146 0.6955 -0.0751
vn -0.7146 -0.6955 -0.0751
vn -0.7028 0.6955 -0.1494
vn -0.7028 -0.6955 -0.1494
vn -0.6833 0.6955 -0.2220
vn -0.6833 -0.6955 -0.2220
vn -0.6564 0.6955 -0.2922
vn -0.6564 -0.6955 -0.2922
vn -0.6222 0.6955 -0.3593
vn -0.6222 -0.6955 -0.3593
vn -0.5813 0.6955 -0.4223
vn -0.5813 -0.6955 -0.4223
vn -0.5340 0.6955 -0.4808
vn -0.5340 -0.6955 -0.4808
vn -0.4808 0.6955 -0.5340
vn -0.4808 -0.6955 -0.5340
vn -0.4223 0.6955 -0.5813
vn -0.4223 -0.6955 -0.5813
vn -0.3593 0.6955 -0.6222
vn -0.3593 -0.6955 -0.6222
vn -0.2922 0.6955 -0.6564
vn -0.2922 -0.6955 -0.6564
vn -0.2220 0.6955 -0.6833
vn -0.2220 -0.6955 -0.6833
vn -0.1494 0.6955 -0.7028
vn -0.1494 -0.6955 -0.7028
vn -0.0751 0.6955 -0.7146
vn -0.0751 -0.6955 -0.7146
vn -0.0000 0.6955 -0.7185
vn -0.0000 1.0000 0.0000
vn 0.0000 -1.0000 -0.0000
usemtl Default_OBJ
s 1
f 1//1 2//2 3//3
f 3//3 2//2 4//4
f 3//3 4//4 5//5
f 5//5 4//4 6//6
f 5//5 6//6 7//7
f 7//7 6//6 8//8
f 7//7 8//8 9//9
f 9//9 8//8 10//10
f 9//9 10//10 11//11
f 11//11 10//10 12//12
f 11//11 12//12 13//13
f 13//13 12//12 14//14
f 13//13 14//14 15//15
f 15//15 14//14 16//16
f 15//15 16//16 17//17
f 17//17 16//16 18//18
f 17//17 18//18 19//19
f 19//19 18//18 20//20
f 19//19 20//20 21//21
f 21//21 20//20 22//22
f 21//21 22//22 23//23
f 23//23 22//22 24//24
f 23//23 24//24 25//25
f 25//25 24//24 26//26
f 25//25 26//26 27//27
f 27//27 26//26 28//28
f 27//27 28//28 29//29
f 29//29 28//28 30//30
f 29//29 30//30 31//31
f 31//31 30//30 32//32
f 31//31 32//32 33//33
f 33//33 32//32 34//34
f 33//33 34//34 35//35
f 35//35 34//34 36//36
f 35//35 36//36 37//37
f 37//37 36//36 38//38
f 37//37 38//38 39//39
f 39//39 38//38 40//40
f 39//39 40//40 41//41
f 41//41 40//40 42//42
f 41//41 42//42 43//43
f 43//43 42//42 44//44
f 43//43 44//44 45//45
f 45//45 44//44 46//46
f 45//45 46//46 47//47
f 47//47 46//46 48//48
f 47//47 48//48 49//49
f 49//49 48//48 50//50
f 49//49 50//50 51//51
f 51//51 50//50 52//52
f 51//51 52//52 53//53
f 53//53 52//52 54//54
f 53//53 54//54 55//55
f 55//55 54//54 56//56
f 55//55 56//56 57//57
f 57//57 56//56 58//58
f 57//57 58//58 59//59
f 59//59 58//58 60//60
f 59//59 60//60 61//61
f 61//61 60//60 62//62
f 61//61 62//62 63//63
f 63//63 62//62 64//64
f 63//63 64//64 65//65
f 65//65 64//64 66//66
f 65//65 66//66 67//67
f 67//67 66//66 68//68
f 67//67 68//68 69//69
f 69//69 68//68 70//70
f 69//69 70//70 71//71
f 71//71 70//70 72//72
f 71//71 72//72 73//73
f 73//73 72//72 74//74
f 73//73 74//74 75//75
f 75//75 74//74 76//76
f 75//75 76//76 77//77
f 77//77 76//76 78//78
f 77//77 78//78 79//79
f 79//79 78//78 80//80
f 79//79 80//80 81//81
f 81//81 80//80 82//82
f 81//81 82//82 83//83
f 83//83 82//82 84//84
f 83//83 84//84 85//85
f 85//85 84//84 86//86
f 85//85 86//86 87//87
f 87//87 86//86 88//88
f 87//87 88//88 89//89
f 89//89 88//88 90//90
f 89//89 90//90 91//91
f 91//91 90//90 92//92
f 91//91 92//92 93//93
f 93//93 92//92 94//94
f 93//93 94//94 95//95
f 95//95 94//94 96//96
f 95//95 96//96 97//97
f 97//97 96//96 98//98
f 97//97 98//98 99//99
f 99//99 98//98 100//100
f 99//99 100//100 101//101
f 101//101 100//100 102//102
f 101//101 102//102 103//103
f 103//103 102//102 104//104
f 103//103 104//104 105//105
f 105//105 104//104 106//106
f 105//105 106//106 107//107
f 107//107 106//106 108//108
f 107//107 108//108 109//109
f 109//109 108//108 110//110
f 109//109 110//110 111//111
f 111//111 110//110 112//112
f 111//111 112//112 113//113
f 113//113 112//112 114//114
f 113//113 114//114 115//115
f 115//115 114//114 116//116
f 115//115 116//116 117//117
f 117//117 116//116 118//118
f 117//117 118//118 119//119
f 119//119 118//118 120//120
f 119//119 120//120 1//1
f 1//1 120//120 2//2
f 64//64 62//62 121//121
f 121//121 62//62 60//60
f 121//121 60//60 58//58
f 70//70 68//68 121//121
f 121//121 68//68 66//66
f 121//121 66//66 64//64
f 76//76 74//74 121//121
f 121//121 74//74 72//72
f 121//121 72//72 70//70
f 82//82 80//80 121//121
f 121//121 80//80 78//78
f 121//121 78//78 76//76
f 88//88 86//86 121//121
f 121//121 86//86 84//84
f 121//121 84//84 82//82
f 94//94 92//92 121//121
f 121//121 92//92 90//90
f 121//121 90//90 88//88
f 100//100 98//98 121//121
f 121//121 98//98 96//96
f 121//121 96//96 94//94
f 106//106 104//104 121//121
f 121//121 104//104 102//102
f 121//121 102//102 100//100
f 112//112 110//110 121//121
f 121//121 110//110 108//108
f 121//121 108//108 106//106
f 118//118 116//116 121//121
f 121//121 116//116 114//114
f 121//121 114//114 112//112
f 4//4 2//2 121//121
f 121//121 2//2 120//120
f 121//121 120//120 118//118
f 10//10 8//8 121//121
f 121//121 8//8 6//6
f 121//121 6//6 4//4
f 16//16 14//14 121//121
f 121//121 14//14 12//12
f 121//121 12//12 10//10
f 22//22 20//20 121//121
f 121//121 20//20 18//18
f 121//121 18//18 16//16
f 28//28 26//26 121//121
f 121//121 26//26 24//24
f 121//121 24//24 22//22
f 34//34 32//32 121//121
f 121//121 32//32 30//30
f 121//121 30//30 28//28
f 40//40 38//38 121//121
f 121//121 38//38 36//36
f 121//121 36//36 34//34
f 46//46 44//44 121//121
f 121//121 44//44 42//42
f 121//121 42//42 40//40
f 52//52 50//50 121//121
f 121//121 50//50 48//48
f 121//121 48//48 46//46
f 58//58 56//56 121//121
f 121//121 56//56 54//54
f 121//121 54//54 52//52
f 57//57 59//59 122//122
f 122//122 59//59 61//61
f 122//122 61//61 63//63
f 51//51 53//53 122//122
f 122//122 53//53 55//55
f 122//122 55//55 57//57
f 45//45 47//47 122//122
f 122//122 47//47 49//49
f 122//122 49//49 51//51
f 39//39 41//41 122//122
f 122//122 41//41 43//43
f 122//122 43//43 45//45
f 33//33 35//35 122//122
f 122//122 35//35 37//37
f 122//122 37//37 39//39
f 27//27 29//29 122//122
f 122//122 29//29 31//31
f 122//122 31//31 33//33
f 21//21 23//23 122//122
f 122//122 23//23 25//25
f 122//122 25//25 27//27
f 15//15 17//17 122//122
f 122//122 17//17 19//19
f 122//122 19//19 21//21
f 9//9 11//11 122//122
f 122//122 11//11 13//13
f 122//122 13//13 15//15
f 3//3 5//5 122//122
f 122//122 5//5 7//7
f 122//122 7//7 9//9
f 117//117 119//119 122//122
f 122//122 119//119 1//1
f 122//122 1//1 3//3
f 111//111 113//113 122//122
f 122//122 113//113 115//115
f 122//122 115//115 117//117
f 105//105 107//107 122//122
f 122//122 107//107 109//109
f 122//122 109//109 111//111
f 99//99 101//101 122//122
f 122//122 101//101 103//103
f 122//122 103//103 105//105
f 93//93 95//95 122//122
f 122//122 95//95 97//97
f 122//122 97//97 99//99
f 87//87 89//89 122//122
f 122//122 89//89 91//91
f 122//122 91//91 93//93
f 81//81 83//83 122//122
f 122//122 83//83 85//85
f 122//122 85//85 87//87
f 75//75 77//77 122//122
f 122//122 77//77 79//79
f 122//122 79//79 81//81
f 69//69 71//71 122//122
f 122//122 71//71 73//73
f 122//122 73//73 75//75
f 63//63 65//65 122//122
f 122//122 65//65 67//67
f 122//122 67//67 69//69
