# Apple ModelIO OBJ File: wafer2
mtllib wafer2.mtl
g 
v 0.517585 0.142025 8.54295
v 0.078899 0.142025 8.55425
v 0.078899 -3e-06 8.55425
v -0.359787 -3e-06 8.54295
v -0.359787 0.142025 8.54295
v -1.23251 0.142025 8.45273
v -1.23251 -3e-06 8.45273
v -2.09133 0.142026 8.27327
v -2.09133 -3e-06 8.27327
v -2.92715 0.142026 8.00644
v -2.92715 -3e-06 8.00644
v -3.7311 0.142026 7.6551
v -3.7311 -3e-06 7.6551
v -4.49466 0.142026 7.22295
v -4.49466 -3e-06 7.22295
v -5.20974 0.142026 6.71458
v -5.20974 -2e-06 6.71458
v -5.86877 0.142026 6.13538
v -5.86877 -2e-06 6.13538
v -6.46474 0.142026 5.49149
v -6.46474 -2e-06 5.49149
v -6.99135 0.142026 4.78973
v -6.99135 -2e-06 4.78973
v -7.44302 0.142026 4.03755
v -7.44302 -2e-06 4.03755
v -7.81495 0.142026 3.24291
v -7.81495 -2e-06 3.24291
v -8.1032 0.142026 2.41424
v -8.1032 -2e-06 2.41424
v -8.30473 0.142027 1.56033
v -8.30473 -2e-06 1.56033
v -8.41738 0.142027 0.690218
v -8.41738 -1e-06 0.690218
v -8.43997 0.142027 -0.186864
v -8.43997 -1e-06 -0.186864
v -8.37226 0.142027 -1.06162
v -8.37226 -1e-06 -1.06162
v -8.21496 0.142027 -1.92478
v -8.21496 -1e-06 -1.92478
v -7.96975 0.142027 -2.76718
v -7.96975 -1e-06 -2.76718
v -7.63922 0.142027 -3.57992
v -7.63922 -1e-06 -3.57992
v -7.22687 0.142028 -4.35435
v -7.22687 -1e-06 -4.35435
v -6.73709 0.142028 -5.08229
v -6.73709 -1e-06 -5.08229
v -6.17505 0.142028 -5.75601
v -6.17505 0 -5.75601
v -5.54671 0.142028 -6.36836
v -5.54671 0 -6.36836
v -4.85875 0.142028 -6.91287
v -4.85875 0 -6.91287
v -4.11844 0.142028 -7.38375
v -4.11844 0 -7.38375
v -3.33365 0.142028 -7.77602
v -3.33365 0 -7.77602
v -2.51267 0.142028 -8.08551
v -2.51267 0 -8.08551
v -1.66423 0.142028 -8.30896
v -1.66423 0 -8.30896
v -0.79731 0.142028 -8.44397
v -0.79731 0 -8.44397
v 0.078899 0.142028 -8.48914
v 0.078899 0 -8.48914
v 0.955108 0.142028 -8.44397
v 0.955108 0 -8.44397
v 1.82203 0.142028 -8.30896
v 1.82203 0 -8.30896
v 2.67047 0.142028 -8.08551
v 2.67047 0 -8.08551
v 3.49144 0.142028 -7.77602
v 3.49144 0 -7.77602
v 4.27624 0.142028 -7.38375
v 4.27624 0 -7.38375
v 5.01655 0.142028 -6.91287
v 5.01655 0 -6.91287
v 5.70451 0.142028 -6.36836
v 5.70451 0 -6.36836
v 6.33285 0.142028 -5.75601
v 6.33285 0 -5.75601
v 6.89488 0.142028 -5.08229
v 6.89488 -1e-06 -5.08229
v 7.38467 0.142028 -4.35435
v 7.38467 -1e-06 -4.35435
v 7.79702 0.142027 -3.57992
v 7.79702 -1e-06 -3.57992
v 8.12755 0.142027 -2.76718
v 8.12755 -1e-06 -2.76718
v 8.37276 0.142027 -1.92478
v 8.37276 -1e-06 -1.92478
v 8.53006 0.142027 -1.06162
v 8.53006 -1e-06 -1.06162
v 8.59777 0.142027 -0.186864
v 8.59777 -1e-06 -0.186864
v 8.57518 0.142027 0.690218
v 8.57518 -1e-06 0.690218
v 8.46252 0.142027 1.56033
v 8.46252 -2e-06 1.56033
v 8.261 0.142026 2.41424
v 8.261 -2e-06 2.41424
v 7.97275 0.142026 3.24291
v 7.97275 -2e-06 3.24291
v 7.60082 0.142026 4.03755
v 7.60082 -2e-06 4.03755
v 7.14915 0.142026 4.78973
v 7.14915 -2e-06 4.78973
v 6.62254 0.142026 5.49149
v 6.62254 -2e-06 5.49149
v 6.02657 0.142026 6.13538
v 6.02657 -2e-06 6.13538
v 5.36754 0.142026 6.71458
v 5.36754 -2e-06 6.71458
v 4.65246 0.142026 7.22295
v 4.65246 -3e-06 7.22295
v 3.8889 0.142026 7.6551
v 3.8889 -3e-06 7.6551
v 3.08494 0.142026 8.00644
v 3.08494 -3e-06 8.00644
v 2.24913 0.142026 8.27327
v 2.24913 -3e-06 8.27327
v 1.39031 0.142025 8.45273
v 1.39031 -3e-06 8.45273
v 0.517585 -3e-06 8.54295
v 0.078899 0.142027 0.032552
v 0.078899 -1e-06 0.032552
vn 0.046 0.6985 0.7141
vn 0 0.7014 0.7128
vn -0 -0.7014 0.7128
vn -0.046 -0.6985 0.7141
vn -0.046 0.6985 0.7141
vn -0.1105 0.6957 0.7098
vn -0.1105 -0.6957 0.7098
vn -0.1829 0.6957 0.6946
vn -0.1829 -0.6957 0.6946
vn -0.2534 0.6957 0.6722
vn -0.2534 -0.6957 0.6722
vn -0.3212 0.6957 0.6425
vn -0.3212 -0.6957 0.6425
vn -0.3855 0.6957 0.6061
vn -0.3855 -0.6957 0.6061
vn -0.4458 0.6957 0.5633
vn -0.4458 -0.6957 0.5633
vn -0.5014 0.6957 0.5144
vn -0.5014 -0.6957 0.5144
vn -0.5516 0.6957 0.4602
vn -0.5516 -0.6957 0.4602
vn -0.596 0.6957 0.401
vn -0.596 -0.6957 0.401
vn -0.6341 0.6957 0.3376
vn -0.6341 -0.6957 0.3376
vn -0.6654 0.6957 0.2706
vn -0.6654 -0.6957 0.2706
vn -0.6897 0.6957 0.2008
vn -0.6897 -0.6957 0.2008
vn -0.7067 0.6957 0.1288
vn -0.7067 -0.6957 0.1288
vn -0.7162 0.6957 0.0554
vn -0.7162 -0.6957 0.0554
vn -0.7181 0.6957 -0.0185
vn -0.7181 -0.6957 -0.0185
vn -0.7124 0.6957 -0.0922
vn -0.7124 -0.6957 -0.0922
vn -0.6991 0.6957 -0.165
vn -0.6991 -0.6957 -0.165
vn -0.6785 0.6957 -0.236
vn -0.6785 -0.6957 -0.236
vn -0.6506 0.6957 -0.3045
vn -0.6506 -0.6957 -0.3045
vn -0.6158 0.6957 -0.3698
vn -0.6158 -0.6957 -0.3698
vn -0.5745 0.6957 -0.4312
vn -0.5745 -0.6957 -0.4312
vn -0.5272 0.6957 -0.4879
vn -0.5272 -0.6957 -0.4879
vn -0.4742 0.6957 -0.5396
vn -0.4742 -0.6957 -0.5396
vn -0.4162 0.6957 -0.5855
vn -0.4162 -0.6957 -0.5855
vn -0.3538 0.6957 -0.6252
vn -0.3538 -0.6957 -0.6252
vn -0.2877 0.6957 -0.6582
vn -0.2877 -0.6957 -0.6582
vn -0.2185 0.6957 -0.6843
vn -0.2185 -0.6957 -0.6843
vn -0.1469 0.6957 -0.7031
vn -0.1469 -0.6957 -0.7031
vn -0.0739 0.6957 -0.7145
vn -0.0739 -0.6957 -0.7145
vn -0 0.6957 -0.7183
vn -0 -0.6957 -0.7183
vn 0.0739 0.6957 -0.7145
vn 0.0739 -0.6957 -0.7145
vn 0.1469 0.6957 -0.7031
vn 0.1469 -0.6957 -0.7031
vn 0.2185 0.6957 -0.6843
vn 0.2185 -0.6957 -0.6843
vn 0.2877 0.6957 -0.6582
vn 0.2877 -0.6957 -0.6582
vn 0.3538 0.6957 -0.6252
vn 0.3538 -0.6957 -0.6252
vn 0.4162 0.6957 -0.5855
vn 0.4162 -0.6957 -0.5855
vn 0.4742 0.6957 -0.5396
vn 0.4742 -0.6957 -0.5396
vn 0.5272 0.6957 -0.4879
vn 0.5272 -0.6957 -0.4879
vn 0.5745 0.6957 -0.4312
vn 0.5745 -0.6957 -0.4312
vn 0.6158 0.6957 -0.3698
vn 0.6158 -0.6957 -0.3698
vn 0.6506 0.6957 -0.3045
vn 0.6506 -0.6957 -0.3045
vn 0.6785 0.6957 -0.236
vn 0.6785 -0.6957 -0.236
vn 0.6991 0.6957 -0.165
vn 0.6991 -0.6957 -0.165
vn 0.7124 0.6957 -0.0922
vn 0.7124 -0.6957 -0.0922
vn 0.7181 0.6957 -0.0185
vn 0.7181 -0.6957 -0.0185
vn 0.7162 0.6957 0.0554
vn 0.7162 -0.6957 0.0554
vn 0.7067 0.6957 0.1288
vn 0.7067 -0.6957 0.1288
vn 0.6897 0.6957 0.2008
vn 0.6897 -0.6957 0.2008
vn 0.6654 0.6957 0.2706
vn 0.6654 -0.6957 0.2706
vn 0.6341 0.6957 0.3376
vn 0.6341 -0.6957 0.3376
vn 0.596 0.6957 0.401
vn 0.596 -0.6957 0.401
vn 0.5516 0.6957 0.4602
vn 0.5516 -0.6957 0.4602
vn 0.5014 0.6957 0.5144
vn 0.5014 -0.6957 0.5144
vn 0.4458 0.6957 0.5633
vn 0.4458 -0.6957 0.5633
vn 0.3855 0.6957 0.6061
vn 0.3855 -0.6957 0.6061
vn 0.3212 0.6957 0.6425
vn 0.3212 -0.6957 0.6425
vn 0.2534 0.6957 0.6722
vn 0.2534 -0.6957 0.6722
vn 0.1829 0.6957 0.6946
vn 0.1829 -0.6957 0.6946
vn 0.1105 0.6957 0.7098
vn 0.1105 -0.6957 0.7098
vn 0.046 -0.6985 0.7141
vn 0 1 0
vn -0 -1 -0
usemtl material_1
f 1//1 2//2 3//3
f 3//3 2//2 4//4
f 2//2 5//5 4//4
f 4//4 5//5 6//6
f 4//4 6//6 7//7
f 7//7 6//6 8//8
f 7//7 8//8 9//9
f 9//9 8//8 10//10
f 9//9 10//10 11//11
f 11//11 10//10 12//12
f 11//11 12//12 13//13
f 13//13 12//12 14//14
f 13//13 14//14 15//15
f 15//15 14//14 16//16
f 15//15 16//16 17//17
f 17//17 16//16 18//18
f 17//17 18//18 19//19
f 19//19 18//18 20//20
f 19//19 20//20 21//21
f 21//21 20//20 22//22
f 21//21 22//22 23//23
f 23//23 22//22 24//24
f 23//23 24//24 25//25
f 25//25 24//24 26//26
f 25//25 26//26 27//27
f 27//27 26//26 28//28
f 27//27 28//28 29//29
f 29//29 28//28 30//30
f 29//29 30//30 31//31
f 31//31 30//30 32//32
f 31//31 32//32 33//33
f 33//33 32//32 34//34
f 33//33 34//34 35//35
f 35//35 34//34 36//36
f 35//35 36//36 37//37
f 37//37 36//36 38//38
f 37//37 38//38 39//39
f 39//39 38//38 40//40
f 39//39 40//40 41//41
f 41//41 40//40 42//42
f 41//41 42//42 43//43
f 43//43 42//42 44//44
f 43//43 44//44 45//45
f 45//45 44//44 46//46
f 45//45 46//46 47//47
f 47//47 46//46 48//48
f 47//47 48//48 49//49
f 49//49 48//48 50//50
f 49//49 50//50 51//51
f 51//51 50//50 52//52
f 51//51 52//52 53//53
f 53//53 52//52 54//54
f 53//53 54//54 55//55
f 55//55 54//54 56//56
f 55//55 56//56 57//57
f 57//57 56//56 58//58
f 57//57 58//58 59//59
f 59//59 58//58 60//60
f 59//59 60//60 61//61
f 61//61 60//60 62//62
f 61//61 62//62 63//63
f 63//63 62//62 64//64
f 63//63 64//64 65//65
f 65//65 64//64 66//66
f 65//65 66//66 67//67
f 67//67 66//66 68//68
f 67//67 68//68 69//69
f 69//69 68//68 70//70
f 69//69 70//70 71//71
f 71//71 70//70 72//72
f 71//71 72//72 73//73
f 73//73 72//72 74//74
f 73//73 74//74 75//75
f 75//75 74//74 76//76
f 75//75 76//76 77//77
f 77//77 76//76 78//78
f 77//77 78//78 79//79
f 79//79 78//78 80//80
f 79//79 80//80 81//81
f 81//81 80//80 82//82
f 81//81 82//82 83//83
f 83//83 82//82 84//84
f 83//83 84//84 85//85
f 85//85 84//84 86//86
f 85//85 86//86 87//87
f 87//87 86//86 88//88
f 87//87 88//88 89//89
f 89//89 88//88 90//90
f 89//89 90//90 91//91
f 91//91 90//90 92//92
f 91//91 92//92 93//93
f 93//93 92//92 94//94
f 93//93 94//94 95//95
f 95//95 94//94 96//96
f 95//95 96//96 97//97
f 97//97 96//96 98//98
f 97//97 98//98 99//99
f 99//99 98//98 100//100
f 99//99 100//100 101//101
f 101//101 100//100 102//102
f 101//101 102//102 103//103
f 103//103 102//102 104//104
f 103//103 104//104 105//105
f 105//105 104//104 106//106
f 105//105 106//106 107//107
f 107//107 106//106 108//108
f 107//107 108//108 109//109
f 109//109 108//108 110//110
f 109//109 110//110 111//111
f 111//111 110//110 112//112
f 111//111 112//112 113//113
f 113//113 112//112 114//114
f 113//113 114//114 115//115
f 115//115 114//114 116//116
f 115//115 116//116 117//117
f 117//117 116//116 118//118
f 117//117 118//118 119//119
f 119//119 118//118 120//120
f 119//119 120//120 121//121
f 121//121 120//120 122//122
f 121//121 122//122 123//123
f 123//123 122//122 1//1
f 123//123 1//1 124//124
f 124//124 1//1 3//3
f 2//2 1//1 125//125
f 2//2 125//125 5//5
f 10//10 8//8 125//125
f 125//125 8//8 6//6
f 125//125 6//6 5//5
f 16//16 14//14 125//125
f 125//125 14//14 12//12
f 125//125 12//12 10//10
f 22//22 20//20 125//125
f 125//125 20//20 18//18
f 125//125 18//18 16//16
f 28//28 26//26 125//125
f 125//125 26//26 24//24
f 125//125 24//24 22//22
f 34//34 32//32 125//125
f 125//125 32//32 30//30
f 125//125 30//30 28//28
f 40//40 38//38 125//125
f 125//125 38//38 36//36
f 125//125 36//36 34//34
f 46//46 44//44 125//125
f 125//125 44//44 42//42
f 125//125 42//42 40//40
f 52//52 50//50 125//125
f 125//125 50//50 48//48
f 125//125 48//48 46//46
f 58//58 56//56 125//125
f 125//125 56//56 54//54
f 125//125 54//54 52//52
f 64//64 62//62 125//125
f 125//125 62//62 60//60
f 125//125 60//60 58//58
f 70//70 68//68 125//125
f 125//125 68//68 66//66
f 125//125 66//66 64//64
f 76//76 74//74 125//125
f 125//125 74//74 72//72
f 125//125 72//72 70//70
f 82//82 80//80 125//125
f 125//125 80//80 78//78
f 125//125 78//78 76//76
f 88//88 86//86 125//125
f 125//125 86//86 84//84
f 125//125 84//84 82//82
f 94//94 92//92 125//125
f 125//125 92//92 90//90
f 125//125 90//90 88//88
f 100//100 98//98 125//125
f 125//125 98//98 96//96
f 125//125 96//96 94//94
f 106//106 104//104 125//125
f 125//125 104//104 102//102
f 125//125 102//102 100//100
f 112//112 110//110 125//125
f 125//125 110//110 108//108
f 125//125 108//108 106//106
f 118//118 116//116 125//125
f 125//125 116//116 114//114
f 125//125 114//114 112//112
f 1//1 122//122 125//125
f 125//125 122//122 120//120
f 125//125 120//120 118//118
f 3//3 4//4 126//126
f 3//3 126//126 124//124
f 119//119 121//121 126//126
f 126//126 121//121 123//123
f 126//126 123//123 124//124
f 113//113 115//115 126//126
f 126//126 115//115 117//117
f 126//126 117//117 119//119
f 107//107 109//109 126//126
f 126//126 109//109 111//111
f 126//126 111//111 113//113
f 101//101 103//103 126//126
f 126//126 103//103 105//105
f 126//126 105//105 107//107
f 95//95 97//97 126//126
f 126//126 97//97 99//99
f 126//126 99//99 101//101
f 89//89 91//91 126//126
f 126//126 91//91 93//93
f 126//126 93//93 95//95
f 83//83 85//85 126//126
f 126//126 85//85 87//87
f 126//126 87//87 89//89
f 77//77 79//79 126//126
f 126//126 79//79 81//81
f 126//126 81//81 83//83
f 71//71 73//73 126//126
f 126//126 73//73 75//75
f 126//126 75//75 77//77
f 65//65 67//67 126//126
f 126//126 67//67 69//69
f 126//126 69//69 71//71
f 59//59 61//61 126//126
f 126//126 61//61 63//63
f 126//126 63//63 65//65
f 53//53 55//55 126//126
f 126//126 55//55 57//57
f 126//126 57//57 59//59
f 47//47 49//49 126//126
f 126//126 49//49 51//51
f 126//126 51//51 53//53
f 41//41 43//43 126//126
f 126//126 43//43 45//45
f 126//126 45//45 47//47
f 35//35 37//37 126//126
f 126//126 37//37 39//39
f 126//126 39//39 41//41
f 29//29 31//31 126//126
f 126//126 31//31 33//33
f 126//126 33//33 35//35
f 23//23 25//25 126//126
f 126//126 25//25 27//27
f 126//126 27//27 29//29
f 17//17 19//19 126//126
f 126//126 19//19 21//21
f 126//126 21//21 23//23
f 11//11 13//13 126//126
f 126//126 13//13 15//15
f 126//126 15//15 17//17
f 4//4 7//7 126//126
f 126//126 7//7 9//9
f 126//126 9//9 11//11
s off
